%TF.GenerationSoftware,Altium Limited,Altium Designer,20.1.12 (249)*%
G04 Layer_Color=8388736*
%FSLAX26Y26*%
%MOIN*%
%TF.SameCoordinates,D7814EA1-E16B-4454-910B-2193EC0156EE*%
%TF.FilePolarity,Negative*%
%TF.FileFunction,Soldermask,Top*%
%TF.Part,Single*%
G01*
G75*
%TA.AperFunction,SMDPad,CuDef*%
%ADD14R,0.109843X0.029134*%
%TA.AperFunction,ViaPad*%
%ADD48C,0.165480*%
%TA.AperFunction,ComponentPad*%
%ADD49C,0.067055*%
%ADD50R,0.067055X0.067055*%
%ADD51C,0.088000*%
%ADD52C,0.074142*%
%TA.AperFunction,ViaPad*%
%ADD53C,0.028000*%
%TA.AperFunction,SMDPad,CuDef*%
G04:AMPARAMS|DCode=59|XSize=29.654mil|YSize=57.213mil|CornerRadius=5.949mil|HoleSize=0mil|Usage=FLASHONLY|Rotation=0.000|XOffset=0mil|YOffset=0mil|HoleType=Round|Shape=RoundedRectangle|*
%AMROUNDEDRECTD59*
21,1,0.029654,0.045315,0,0,0.0*
21,1,0.017756,0.057213,0,0,0.0*
1,1,0.011898,0.008878,-0.022657*
1,1,0.011898,-0.008878,-0.022657*
1,1,0.011898,-0.008878,0.022657*
1,1,0.011898,0.008878,0.022657*
%
%ADD59ROUNDEDRECTD59*%
%ADD60R,0.074929X0.053276*%
%ADD61R,0.039496X0.045402*%
%ADD62R,0.063118X0.067055*%
%ADD63R,0.041465X0.037528*%
G04:AMPARAMS|DCode=64|XSize=82.803mil|YSize=102.488mil|CornerRadius=0mil|HoleSize=0mil|Usage=FLASHONLY|Rotation=315.000|XOffset=0mil|YOffset=0mil|HoleType=Round|Shape=Rectangle|*
%AMROTATEDRECTD64*
4,1,4,-0.065510,-0.006960,0.006960,0.065510,0.065510,0.006960,-0.006960,-0.065510,-0.065510,-0.006960,0.0*
%
%ADD64ROTATEDRECTD64*%

%ADD65R,0.065087X0.059181*%
G04:AMPARAMS|DCode=66|XSize=72.961mil|YSize=51.307mil|CornerRadius=0mil|HoleSize=0mil|Usage=FLASHONLY|Rotation=45.000|XOffset=0mil|YOffset=0mil|HoleType=Round|Shape=Rectangle|*
%AMROTATEDRECTD66*
4,1,4,-0.007656,-0.043935,-0.043935,-0.007656,0.007656,0.043935,0.043935,0.007656,-0.007656,-0.043935,0.0*
%
%ADD66ROTATEDRECTD66*%

G04:AMPARAMS|DCode=67|XSize=17.843mil|YSize=69.024mil|CornerRadius=0mil|HoleSize=0mil|Usage=FLASHONLY|Rotation=135.000|XOffset=0mil|YOffset=0mil|HoleType=Round|Shape=Round|*
%AMOVALD67*
21,1,0.051181,0.017843,0.000000,0.000000,225.0*
1,1,0.017843,0.018095,0.018095*
1,1,0.017843,-0.018095,-0.018095*
%
%ADD67OVALD67*%

G04:AMPARAMS|DCode=68|XSize=17.843mil|YSize=69.024mil|CornerRadius=0mil|HoleSize=0mil|Usage=FLASHONLY|Rotation=45.000|XOffset=0mil|YOffset=0mil|HoleType=Round|Shape=Round|*
%AMOVALD68*
21,1,0.051181,0.017843,0.000000,0.000000,135.0*
1,1,0.017843,0.018095,-0.018095*
1,1,0.017843,-0.018095,0.018095*
%
%ADD68OVALD68*%

%ADD69R,0.025716X0.041465*%
%ADD70R,0.082803X0.067055*%
%ADD71R,0.047370X0.106425*%
%ADD72R,0.067055X0.082803*%
%ADD73O,0.094614X0.031622*%
%ADD74R,0.059181X0.078866*%
%ADD75O,0.025716X0.067055*%
%ADD76R,0.041465X0.025716*%
%ADD77R,0.029654X0.078866*%
D14*
X244882Y2309183D02*
D03*
Y2259183D02*
D03*
Y2209183D02*
D03*
Y2109183D02*
D03*
X405118Y2309183D02*
D03*
Y2259183D02*
D03*
Y2209183D02*
D03*
Y2159183D02*
D03*
Y2109183D02*
D03*
D48*
X1080000Y1590000D02*
D03*
X120000Y795000D02*
D03*
Y2820000D02*
D03*
D49*
X824370Y886654D02*
D03*
X745630D02*
D03*
X903110D02*
D03*
D50*
X666890D02*
D03*
D51*
X1800000Y1262274D02*
D03*
Y951250D02*
D03*
Y1938524D02*
D03*
Y1627500D02*
D03*
Y2614774D02*
D03*
Y2303750D02*
D03*
Y3291024D02*
D03*
Y2980000D02*
D03*
Y586024D02*
D03*
Y275000D02*
D03*
D52*
X745000Y2582018D02*
D03*
X945000D02*
D03*
D53*
X500000Y2310000D02*
D03*
X512349Y1872349D02*
D03*
X575000Y2065000D02*
D03*
X695000D02*
D03*
X1325000Y2595000D02*
D03*
X655000Y1385000D02*
D03*
X436620Y1795961D02*
D03*
X315000Y1735000D02*
D03*
X490000Y1760000D02*
D03*
X555000D02*
D03*
X1119427Y1436250D02*
D03*
X1500000Y2520000D02*
D03*
X1955000Y1380000D02*
D03*
X730000Y1530000D02*
D03*
X760000Y1480000D02*
D03*
X605000Y1825000D02*
D03*
X2025000Y95000D02*
D03*
X1950000Y845000D02*
D03*
X685000Y1565000D02*
D03*
X1950000Y2035000D02*
D03*
X1955000Y2705000D02*
D03*
X795000Y1535000D02*
D03*
X1770000Y765000D02*
D03*
X1550000D02*
D03*
X1595000Y95000D02*
D03*
X1060000Y765000D02*
D03*
X1605000Y1440000D02*
D03*
X1650000Y2160000D02*
D03*
X795000Y2180000D02*
D03*
X615000Y2265000D02*
D03*
X1268750Y2208750D02*
D03*
X1060000Y2180000D02*
D03*
X1125355Y2307105D02*
D03*
X1060000Y2305000D02*
D03*
X1090000Y2440000D02*
D03*
X600000Y1755000D02*
D03*
X1270000Y2695000D02*
D03*
X1240000Y2485000D02*
D03*
X515000Y2615000D02*
D03*
X265000Y2560000D02*
D03*
X325000Y2395000D02*
D03*
X205000Y1215000D02*
D03*
X115000Y1280000D02*
D03*
X285000Y1905000D02*
D03*
X875000Y1740000D02*
D03*
X860000Y1875000D02*
D03*
X875000Y1140000D02*
D03*
X995000D02*
D03*
X1005000Y1195000D02*
D03*
X945000Y1350000D02*
D03*
X335591Y1249409D02*
D03*
Y1351772D02*
D03*
X454409Y1350591D02*
D03*
X530404Y1414597D02*
D03*
X608386Y1455000D02*
D03*
X557205Y1452795D02*
D03*
X582795Y1417795D02*
D03*
X285000Y830000D02*
D03*
Y935000D02*
D03*
Y1030000D02*
D03*
Y1135000D02*
D03*
X460000Y1600000D02*
D03*
X535000Y1700000D02*
D03*
X557230Y1870713D02*
D03*
X589313Y1909062D02*
D03*
X710000Y1995000D02*
D03*
X630000Y1880000D02*
D03*
X710000Y1455000D02*
D03*
X860000Y1460000D02*
D03*
X760000Y1350000D02*
D03*
X860000Y1250000D02*
D03*
X810000Y1350000D02*
D03*
Y1125000D02*
D03*
X245000Y2054183D02*
D03*
Y2369183D02*
D03*
X1295000Y1990000D02*
D03*
X1225000D02*
D03*
X1296875Y2310000D02*
D03*
X1295000Y1435000D02*
D03*
X1296562Y1875000D02*
D03*
X1125000D02*
D03*
X1115000Y1000000D02*
D03*
X1295000D02*
D03*
X1461705Y2745000D02*
D03*
Y2308750D02*
D03*
Y1873100D02*
D03*
Y1436250D02*
D03*
X1465000Y1000000D02*
D03*
X1324527Y2160000D02*
D03*
Y1725000D02*
D03*
Y1285000D02*
D03*
Y850000D02*
D03*
X1340000Y1066900D02*
D03*
Y1505000D02*
D03*
Y1940000D02*
D03*
Y2380000D02*
D03*
Y2815000D02*
D03*
D59*
X860000Y1403347D02*
D03*
X810000D02*
D03*
X760000D02*
D03*
X710000D02*
D03*
X860000Y1196654D02*
D03*
X810000D02*
D03*
X760000D02*
D03*
X710000D02*
D03*
D60*
X945000Y1193819D02*
D03*
Y1296181D02*
D03*
X395000Y1248819D02*
D03*
Y1351181D02*
D03*
D61*
X1179606Y765000D02*
D03*
X1130394D02*
D03*
X1547431Y2470000D02*
D03*
X1498218D02*
D03*
X1699606Y2115000D02*
D03*
X1650394D02*
D03*
X1719606Y1440000D02*
D03*
X1670394D02*
D03*
X1694606Y95000D02*
D03*
X1645394D02*
D03*
D62*
X1835945Y2790000D02*
D03*
X1954055D02*
D03*
X1835945Y2116596D02*
D03*
X1954055D02*
D03*
X1835945Y1443192D02*
D03*
X1954055D02*
D03*
X1835945Y769788D02*
D03*
X1954055D02*
D03*
X1835945Y96385D02*
D03*
X1954055D02*
D03*
X334055Y2610000D02*
D03*
X215945D02*
D03*
X334055Y2505000D02*
D03*
X215945D02*
D03*
D63*
X127313Y1878819D02*
D03*
Y1930000D02*
D03*
X127313Y1754409D02*
D03*
Y1805591D02*
D03*
D64*
X257930Y1613565D02*
D03*
X372070Y1499426D02*
D03*
D65*
X114281Y1388921D02*
D03*
Y1325929D02*
D03*
X205000Y1328921D02*
D03*
Y1265929D02*
D03*
D66*
X191858Y1509670D02*
D03*
X271199Y1430330D02*
D03*
D67*
X391392Y1754033D02*
D03*
X405311Y1740113D02*
D03*
X419231Y1726194D02*
D03*
X433150Y1712275D02*
D03*
X447069Y1698355D02*
D03*
X460989Y1684436D02*
D03*
X474908Y1670516D02*
D03*
X488828Y1656597D02*
D03*
X502747Y1642678D02*
D03*
X516667Y1628758D02*
D03*
X530586Y1614839D02*
D03*
X544505Y1600919D02*
D03*
X768608Y1825022D02*
D03*
X754689Y1838941D02*
D03*
X740769Y1852861D02*
D03*
X726850Y1866780D02*
D03*
X712930Y1880700D02*
D03*
X699011Y1894619D02*
D03*
X685092Y1908539D02*
D03*
X671172Y1922458D02*
D03*
X657253Y1936377D02*
D03*
X643333Y1950297D02*
D03*
X629414Y1964216D02*
D03*
X615495Y1978136D02*
D03*
D68*
Y1600919D02*
D03*
X629414Y1614839D02*
D03*
X643333Y1628758D02*
D03*
X657253Y1642678D02*
D03*
X671172Y1656597D02*
D03*
X685092Y1670516D02*
D03*
X699011Y1684436D02*
D03*
X712930Y1698355D02*
D03*
X726850Y1712275D02*
D03*
X740769Y1726194D02*
D03*
X754689Y1740113D02*
D03*
X768608Y1754033D02*
D03*
X544505Y1978136D02*
D03*
X530586Y1964216D02*
D03*
X516667Y1950297D02*
D03*
X502747Y1936378D02*
D03*
X488828Y1922458D02*
D03*
X474908Y1908539D02*
D03*
X460989Y1894619D02*
D03*
X447069Y1880700D02*
D03*
X433150Y1866780D02*
D03*
X419231Y1852861D02*
D03*
X405311Y1838941D02*
D03*
X391392Y1825022D02*
D03*
D69*
X1434528Y1505000D02*
D03*
X1375473D02*
D03*
Y1940000D02*
D03*
X1434528D02*
D03*
Y1066900D02*
D03*
X1375473D02*
D03*
X1434528Y2815000D02*
D03*
X1375473D02*
D03*
Y2380000D02*
D03*
X1434528D02*
D03*
D70*
X220000Y1904055D02*
D03*
Y1785945D02*
D03*
X950000Y1760945D02*
D03*
Y1879055D02*
D03*
D71*
X795000Y2261152D02*
D03*
Y2406821D02*
D03*
X695000Y2261152D02*
D03*
Y2406821D02*
D03*
X895000D02*
D03*
X995000D02*
D03*
X895000Y2261152D02*
D03*
X995000D02*
D03*
D72*
X875945Y1080000D02*
D03*
X994055D02*
D03*
X575945Y2131821D02*
D03*
X694055D02*
D03*
D73*
X1394488Y1286250D02*
D03*
Y1336250D02*
D03*
Y1386250D02*
D03*
Y1436250D02*
D03*
X1205512Y1286250D02*
D03*
Y1336250D02*
D03*
Y1386250D02*
D03*
Y1436250D02*
D03*
Y1872500D02*
D03*
Y1822500D02*
D03*
Y1772500D02*
D03*
Y1722500D02*
D03*
X1394488Y1872500D02*
D03*
Y1822500D02*
D03*
Y1772500D02*
D03*
Y1722500D02*
D03*
Y850000D02*
D03*
Y900000D02*
D03*
Y950000D02*
D03*
Y1000000D02*
D03*
X1205512Y850000D02*
D03*
Y900000D02*
D03*
Y950000D02*
D03*
Y1000000D02*
D03*
X1394488Y2595000D02*
D03*
Y2645000D02*
D03*
Y2695000D02*
D03*
Y2745000D02*
D03*
X1205512Y2595000D02*
D03*
Y2645000D02*
D03*
Y2695000D02*
D03*
Y2745000D02*
D03*
Y2308750D02*
D03*
Y2258750D02*
D03*
Y2208750D02*
D03*
Y2158750D02*
D03*
X1394488Y2308750D02*
D03*
Y2258750D02*
D03*
Y2208750D02*
D03*
Y2158750D02*
D03*
D74*
X561024Y2490000D02*
D03*
X438976D02*
D03*
X561024Y2615000D02*
D03*
X438976D02*
D03*
D75*
X608386Y1359724D02*
D03*
X582795D02*
D03*
X557205D02*
D03*
X531614D02*
D03*
X608386Y1200276D02*
D03*
X582795D02*
D03*
X557205D02*
D03*
X531614D02*
D03*
D76*
X469439Y1240473D02*
D03*
Y1299528D02*
D03*
D77*
X463976Y931667D02*
D03*
X336024D02*
D03*
X463976Y1033333D02*
D03*
X336024D02*
D03*
X463976Y830000D02*
D03*
X336024D02*
D03*
X463976Y1135000D02*
D03*
X336024D02*
D03*
%TF.MD5,7315f603ba43157a520b1f564dab2f6f*%
M02*
