%TF.GenerationSoftware,Altium Limited,Altium Designer,20.1.12 (249)*%
G04 Layer_Color=16711935*
%FSLAX26Y26*%
%MOIN*%
%TF.SameCoordinates,D7814EA1-E16B-4454-910B-2193EC0156EE*%
%TF.FilePolarity,Positive*%
%TF.FileFunction,Other,Top_Assembly*%
%TF.Part,Single*%
G01*
G75*
%TA.AperFunction,NonConductor*%
%ADD56C,0.007874*%
G36*
X325563Y2206170D02*
X325522D01*
X325440D01*
X325297Y2206149D01*
X325092Y2206129D01*
X324866Y2206108D01*
X324600Y2206088D01*
X324292Y2206047D01*
X323985Y2206006D01*
X323329Y2205862D01*
X322673Y2205678D01*
X322365Y2205555D01*
X322078Y2205432D01*
X321832Y2205268D01*
X321607Y2205104D01*
X321586Y2205083D01*
X321566Y2205063D01*
X321504Y2205001D01*
X321443Y2204919D01*
X321361Y2204837D01*
X321279Y2204714D01*
X321176Y2204571D01*
X321094Y2204407D01*
X320889Y2204017D01*
X320725Y2203566D01*
X320602Y2203033D01*
X320582Y2202726D01*
X320561Y2202418D01*
Y2202213D01*
X320602Y2201967D01*
X320643Y2201680D01*
X320705Y2201352D01*
X320807Y2200983D01*
X320951Y2200614D01*
X321135Y2200266D01*
Y2200245D01*
X321156Y2200225D01*
X321238Y2200122D01*
X321361Y2199958D01*
X321545Y2199753D01*
X321771Y2199548D01*
X322037Y2199343D01*
X322345Y2199159D01*
X322693Y2198995D01*
X322714D01*
X322734Y2198974D01*
X322796Y2198954D01*
X322878Y2198933D01*
X322980Y2198913D01*
X323124Y2198892D01*
X323267Y2198851D01*
X323452Y2198810D01*
X323657Y2198790D01*
X323903Y2198749D01*
X324149Y2198728D01*
X324436Y2198708D01*
X324743Y2198687D01*
X325092Y2198667D01*
X325461Y2198646D01*
X325850D01*
X343255D01*
Y2195305D01*
X326055D01*
X326014D01*
X325912D01*
X325748D01*
X325522Y2195325D01*
X325256D01*
X324969Y2195346D01*
X324620Y2195366D01*
X324251Y2195407D01*
X323452Y2195489D01*
X322632Y2195633D01*
X321853Y2195817D01*
X321484Y2195940D01*
X321135Y2196084D01*
X321115D01*
X321053Y2196125D01*
X320971Y2196166D01*
X320848Y2196227D01*
X320705Y2196309D01*
X320541Y2196412D01*
X320151Y2196678D01*
X319741Y2197006D01*
X319290Y2197416D01*
X319085Y2197662D01*
X318860Y2197929D01*
X318675Y2198195D01*
X318491Y2198503D01*
Y2198523D01*
X318450Y2198585D01*
X318409Y2198667D01*
X318347Y2198790D01*
X318286Y2198954D01*
X318204Y2199138D01*
X318122Y2199364D01*
X318040Y2199610D01*
X317958Y2199897D01*
X317876Y2200184D01*
X317794Y2200512D01*
X317732Y2200860D01*
X317630Y2201598D01*
X317609Y2202008D01*
X317589Y2202418D01*
Y2202562D01*
X317609Y2202726D01*
Y2202972D01*
X317650Y2203238D01*
X317691Y2203566D01*
X317753Y2203915D01*
X317835Y2204304D01*
X317917Y2204694D01*
X318040Y2205124D01*
X318204Y2205534D01*
X318388Y2205965D01*
X318593Y2206375D01*
X318860Y2206785D01*
X319147Y2207154D01*
X319475Y2207502D01*
X319495Y2207523D01*
X319557Y2207584D01*
X319680Y2207666D01*
X319823Y2207769D01*
X320028Y2207912D01*
X320274Y2208056D01*
X320561Y2208220D01*
X320889Y2208363D01*
X321279Y2208527D01*
X321689Y2208691D01*
X322160Y2208835D01*
X322673Y2208958D01*
X323226Y2209060D01*
X323821Y2209142D01*
X324456Y2209183D01*
X325133D01*
X325563Y2206170D01*
D02*
G37*
G36*
X337043Y2188724D02*
X337084Y2188622D01*
X337146Y2188499D01*
X337248Y2188314D01*
X337351Y2188089D01*
X337494Y2187822D01*
X337658Y2187535D01*
X337843Y2187207D01*
X338048Y2186859D01*
X338273Y2186510D01*
X338786Y2185752D01*
X339339Y2184973D01*
X339975Y2184214D01*
X339995Y2184194D01*
X340057Y2184132D01*
X340139Y2184030D01*
X340282Y2183907D01*
X340426Y2183743D01*
X340610Y2183558D01*
X340815Y2183353D01*
X341061Y2183148D01*
X341574Y2182697D01*
X342148Y2182226D01*
X342742Y2181816D01*
X343050Y2181631D01*
X343357Y2181467D01*
Y2179458D01*
X318019D01*
Y2182554D01*
X337761D01*
X337740Y2182574D01*
X337720Y2182615D01*
X337658Y2182677D01*
X337576Y2182759D01*
X337474Y2182861D01*
X337371Y2183005D01*
X337228Y2183169D01*
X337084Y2183353D01*
X336941Y2183538D01*
X336777Y2183763D01*
X336408Y2184276D01*
X336018Y2184850D01*
X335608Y2185506D01*
X335588Y2185526D01*
X335567Y2185588D01*
X335506Y2185690D01*
X335444Y2185813D01*
X335342Y2185977D01*
X335239Y2186162D01*
X335137Y2186367D01*
X335014Y2186592D01*
X334747Y2187084D01*
X334481Y2187638D01*
X334235Y2188191D01*
X334009Y2188745D01*
X337023D01*
X337043Y2188724D01*
D02*
G37*
D56*
X463976Y2077687D02*
Y2340679D01*
X186024Y2077687D02*
X463976D01*
X186024D02*
Y2340679D01*
X463976D01*
%TF.MD5,1317a2e4d9f64a74e513983dab52edb5*%
M02*
