%TF.GenerationSoftware,Altium Limited,Altium Designer,20.1.12 (249)*%
G04 Layer_Color=0*
%FSLAX26Y26*%
%MOIN*%
%TF.SameCoordinates,D7814EA1-E16B-4454-910B-2193EC0156EE*%
%TF.FilePolarity,Positive*%
%TF.FileFunction,Plated,1,4,PTH,Drill*%
%TF.Part,Single*%
G01*
G75*
%TA.AperFunction,OtherDrill,Pad Free-5 (1080mil,1590mil)*%
%ADD82C,0.122047*%
%TA.AperFunction,OtherDrill,Pad Free-5 (120mil,795mil)*%
%ADD83C,0.122047*%
%TA.AperFunction,OtherDrill,Pad Free-5 (120mil,2820mil)*%
%ADD84C,0.122047*%
%TA.AperFunction,ComponentDrill*%
%ADD85C,0.039370*%
%ADD86C,0.061024*%
%TA.AperFunction,ViaDrill,NotFilled*%
%ADD87C,0.010000*%
D82*
X1080000Y1590000D02*
D03*
D83*
X120000Y795000D02*
D03*
D84*
Y2820000D02*
D03*
D85*
X824370Y886654D02*
D03*
X745630D02*
D03*
X666890D02*
D03*
X903110D02*
D03*
D86*
X1800000Y1262274D02*
D03*
Y951250D02*
D03*
Y1938524D02*
D03*
Y1627500D02*
D03*
Y2614774D02*
D03*
Y2303750D02*
D03*
Y3291024D02*
D03*
Y2980000D02*
D03*
Y586024D02*
D03*
Y275000D02*
D03*
D87*
X500000Y2310000D02*
D03*
X512349Y1872349D02*
D03*
X575000Y2065000D02*
D03*
X695000D02*
D03*
X1325000Y2595000D02*
D03*
X655000Y1385000D02*
D03*
X436620Y1795961D02*
D03*
X315000Y1735000D02*
D03*
X490000Y1760000D02*
D03*
X555000D02*
D03*
X1119427Y1436250D02*
D03*
X1500000Y2520000D02*
D03*
X1955000Y1380000D02*
D03*
X730000Y1530000D02*
D03*
X760000Y1480000D02*
D03*
X605000Y1825000D02*
D03*
X2025000Y95000D02*
D03*
X1950000Y845000D02*
D03*
X685000Y1565000D02*
D03*
X1950000Y2035000D02*
D03*
X1955000Y2705000D02*
D03*
X795000Y1535000D02*
D03*
X1770000Y765000D02*
D03*
X1550000D02*
D03*
X1595000Y95000D02*
D03*
X1060000Y765000D02*
D03*
X1605000Y1440000D02*
D03*
X1650000Y2160000D02*
D03*
X795000Y2180000D02*
D03*
X615000Y2265000D02*
D03*
X1268750Y2208750D02*
D03*
X1060000Y2180000D02*
D03*
X1125355Y2307105D02*
D03*
X1060000Y2305000D02*
D03*
X1090000Y2440000D02*
D03*
X600000Y1755000D02*
D03*
X1270000Y2695000D02*
D03*
X1240000Y2485000D02*
D03*
X515000Y2615000D02*
D03*
X265000Y2560000D02*
D03*
X325000Y2395000D02*
D03*
X205000Y1215000D02*
D03*
X115000Y1280000D02*
D03*
X285000Y1905000D02*
D03*
X875000Y1740000D02*
D03*
X860000Y1875000D02*
D03*
X875000Y1140000D02*
D03*
X995000D02*
D03*
X1005000Y1195000D02*
D03*
X945000Y1350000D02*
D03*
X335591Y1249409D02*
D03*
Y1351772D02*
D03*
X454409Y1350591D02*
D03*
X530404Y1414597D02*
D03*
X608386Y1455000D02*
D03*
X557205Y1452795D02*
D03*
X582795Y1417795D02*
D03*
X285000Y830000D02*
D03*
Y935000D02*
D03*
Y1030000D02*
D03*
Y1135000D02*
D03*
X460000Y1600000D02*
D03*
X535000Y1700000D02*
D03*
X557230Y1870713D02*
D03*
X589313Y1909062D02*
D03*
X710000Y1995000D02*
D03*
X630000Y1880000D02*
D03*
X710000Y1455000D02*
D03*
X860000Y1460000D02*
D03*
X760000Y1350000D02*
D03*
X860000Y1250000D02*
D03*
X810000Y1350000D02*
D03*
Y1125000D02*
D03*
X245000Y2054183D02*
D03*
Y2369183D02*
D03*
X1295000Y1990000D02*
D03*
X1225000D02*
D03*
X1296875Y2310000D02*
D03*
X1295000Y1435000D02*
D03*
X1296562Y1875000D02*
D03*
X1125000D02*
D03*
X1115000Y1000000D02*
D03*
X1295000D02*
D03*
X1461705Y2745000D02*
D03*
Y2308750D02*
D03*
Y1873100D02*
D03*
Y1436250D02*
D03*
X1465000Y1000000D02*
D03*
X1324527Y2160000D02*
D03*
Y1725000D02*
D03*
Y1285000D02*
D03*
Y850000D02*
D03*
X1340000Y1066900D02*
D03*
Y1505000D02*
D03*
Y1940000D02*
D03*
Y2380000D02*
D03*
Y2815000D02*
D03*
%TF.MD5,3157ce1841f7a32b5e37f11b89b4868c*%
M02*
