%TF.GenerationSoftware,Altium Limited,Altium Designer,20.1.12 (249)*%
G04 Layer_Physical_Order=4*
G04 Layer_Color=16711680*
%FSLAX26Y26*%
%MOIN*%
%TF.SameCoordinates,D7814EA1-E16B-4454-910B-2193EC0156EE*%
%TF.FilePolarity,Positive*%
%TF.FileFunction,Copper,L4,Bot,Signal*%
%TF.Part,Single*%
G01*
G75*
%TA.AperFunction,Conductor*%
%ADD31C,0.010000*%
%ADD32C,0.008000*%
%TA.AperFunction,ViaPad*%
%ADD34C,0.157480*%
%TA.AperFunction,ComponentPad*%
%ADD35C,0.059055*%
%ADD36R,0.059055X0.059055*%
%ADD37C,0.080000*%
%ADD38C,0.066142*%
%TA.AperFunction,ViaPad*%
%ADD39C,0.020000*%
D31*
X512349Y1872349D02*
Y2297651D01*
X500000Y2310000D02*
X512349Y2297651D01*
X309000Y2008373D02*
X555000Y1762373D01*
Y1760000D02*
Y1762373D01*
X745630Y886654D02*
X810000Y951024D01*
Y1125000D01*
X325000Y2030000D02*
X600000Y1755000D01*
X325000Y2030000D02*
Y2395000D01*
X309000Y2008373D02*
Y2366000D01*
X1550000Y765000D02*
X1770000D01*
X265000Y2410000D02*
Y2560000D01*
Y2410000D02*
X309000Y2366000D01*
X589313Y1909062D02*
X590938D01*
X595000Y1905000D01*
D32*
X880000Y1160000D02*
X920000D01*
X655000Y1385000D02*
X880000Y1160000D01*
X630000Y1680000D02*
Y1880000D01*
X715000Y1555000D02*
Y1595000D01*
X630000Y1680000D02*
X715000Y1595000D01*
X700000Y1540000D02*
X715000Y1555000D01*
X685000Y1395000D02*
Y1565000D01*
Y1395000D02*
X810000Y1270000D01*
X700000Y1465686D02*
Y1540000D01*
Y1465686D02*
X710000Y1455686D01*
Y1455000D02*
Y1455686D01*
X818000Y1382000D02*
X1443876D01*
X1445876Y1380000D01*
X760000Y1480000D02*
X760000D01*
X844000Y1396000D02*
X925799D01*
X760000Y1480000D02*
X844000Y1396000D01*
X730000Y1470000D02*
X818000Y1382000D01*
X730000Y1470000D02*
Y1530000D01*
X465000Y1735000D02*
X490000Y1760000D01*
X315000Y1735000D02*
X465000D01*
X1119427Y1436250D02*
X1120052Y1435625D01*
X1294375D01*
X1295000Y1435000D01*
X1445876Y1380000D02*
X1955000D01*
X710000Y2180000D02*
X795000D01*
X660000Y2130000D02*
X710000Y2180000D01*
X660000Y1948787D02*
Y2130000D01*
X605000Y1825000D02*
Y1893787D01*
X660000Y1948787D01*
X1565000Y320000D02*
Y680000D01*
X1220000Y750000D02*
X1495000D01*
X1565000Y680000D01*
X1790000Y95000D02*
X2025000D01*
X1565000Y320000D02*
X1790000Y95000D01*
X1050000Y920000D02*
X1220000Y750000D01*
X920000Y1160000D02*
X1050000Y1030000D01*
Y920000D02*
Y1030000D01*
X1950000Y845000D02*
Y960000D01*
X1720000Y1190000D02*
X1950000Y960000D01*
X1135000Y1190000D02*
X1720000D01*
X810000Y1270000D02*
X1055000D01*
X1135000Y1190000D01*
X1929899Y2055101D02*
X1950000Y2035000D01*
X1109899Y2055101D02*
X1929899D01*
X949000Y1419201D02*
Y1894201D01*
X1109899Y2055101D01*
X925799Y1396000D02*
X949000Y1419201D01*
X1955000Y2610000D02*
Y2705000D01*
X1415000Y2070000D02*
X1955000Y2610000D01*
X1105000Y2070000D02*
X1415000D01*
X935000Y1900000D02*
X1105000Y2070000D01*
X935000Y1425000D02*
Y1900000D01*
X870000Y1410000D02*
X920000D01*
X935000Y1425000D01*
X795000Y1485000D02*
X870000Y1410000D01*
X795000Y1485000D02*
Y1535000D01*
X1060000Y2180000D02*
X1088750Y2208750D01*
X1268750D01*
X1126803Y2308552D02*
X1295428D01*
X1296875Y2310000D01*
X1060000Y2305000D02*
X1061053Y2306052D01*
X1124303D01*
X1125355Y2307105D02*
X1126803Y2308552D01*
X1124303Y2306052D02*
X1125355Y2307105D01*
X1240000Y2485000D02*
Y2665000D01*
X1270000Y2695000D01*
X825000Y1495000D02*
X860000Y1460000D01*
X710000Y1920000D02*
X825000Y1805000D01*
Y1495000D02*
Y1805000D01*
X710000Y1920000D02*
Y1995000D01*
X1225000Y1990000D02*
X1295000D01*
X1125000Y1875000D02*
X1296562D01*
X1115000Y1000000D02*
X1295000D01*
D34*
X1080000Y1590000D02*
D03*
X120000Y795000D02*
D03*
Y2820000D02*
D03*
D35*
X824370Y886654D02*
D03*
X745630D02*
D03*
X903110D02*
D03*
D36*
X666890D02*
D03*
D37*
X1800000Y1262274D02*
D03*
Y951250D02*
D03*
Y1938524D02*
D03*
Y1627500D02*
D03*
Y2614774D02*
D03*
Y2303750D02*
D03*
Y3291024D02*
D03*
Y2980000D02*
D03*
Y586024D02*
D03*
Y275000D02*
D03*
D38*
X745000Y2582018D02*
D03*
X945000D02*
D03*
D39*
X500000Y2310000D02*
D03*
X512349Y1872349D02*
D03*
X575000Y2065000D02*
D03*
X695000D02*
D03*
X1325000Y2595000D02*
D03*
X655000Y1385000D02*
D03*
X436620Y1795961D02*
D03*
X315000Y1735000D02*
D03*
X490000Y1760000D02*
D03*
X555000D02*
D03*
X1119427Y1436250D02*
D03*
X1500000Y2520000D02*
D03*
X1955000Y1380000D02*
D03*
X730000Y1530000D02*
D03*
X760000Y1480000D02*
D03*
X605000Y1825000D02*
D03*
X2025000Y95000D02*
D03*
X1950000Y845000D02*
D03*
X685000Y1565000D02*
D03*
X1950000Y2035000D02*
D03*
X1955000Y2705000D02*
D03*
X795000Y1535000D02*
D03*
X1770000Y765000D02*
D03*
X1550000D02*
D03*
X1595000Y95000D02*
D03*
X1060000Y765000D02*
D03*
X1605000Y1440000D02*
D03*
X1650000Y2160000D02*
D03*
X795000Y2180000D02*
D03*
X615000Y2265000D02*
D03*
X1268750Y2208750D02*
D03*
X1060000Y2180000D02*
D03*
X1125355Y2307105D02*
D03*
X1060000Y2305000D02*
D03*
X1090000Y2440000D02*
D03*
X600000Y1755000D02*
D03*
X1270000Y2695000D02*
D03*
X1240000Y2485000D02*
D03*
X515000Y2615000D02*
D03*
X265000Y2560000D02*
D03*
X325000Y2395000D02*
D03*
X205000Y1215000D02*
D03*
X115000Y1280000D02*
D03*
X285000Y1905000D02*
D03*
X875000Y1740000D02*
D03*
X860000Y1875000D02*
D03*
X875000Y1140000D02*
D03*
X995000D02*
D03*
X1005000Y1195000D02*
D03*
X945000Y1350000D02*
D03*
X335591Y1249409D02*
D03*
Y1351772D02*
D03*
X454409Y1350591D02*
D03*
X530404Y1414597D02*
D03*
X608386Y1455000D02*
D03*
X557205Y1452795D02*
D03*
X582795Y1417795D02*
D03*
X285000Y830000D02*
D03*
Y935000D02*
D03*
Y1030000D02*
D03*
Y1135000D02*
D03*
X460000Y1600000D02*
D03*
X535000Y1700000D02*
D03*
X557230Y1870713D02*
D03*
X589313Y1909062D02*
D03*
X710000Y1995000D02*
D03*
X630000Y1880000D02*
D03*
X710000Y1455000D02*
D03*
X860000Y1460000D02*
D03*
X760000Y1350000D02*
D03*
X860000Y1250000D02*
D03*
X810000Y1350000D02*
D03*
Y1125000D02*
D03*
X245000Y2054183D02*
D03*
Y2369183D02*
D03*
X1295000Y1990000D02*
D03*
X1225000D02*
D03*
X1296875Y2310000D02*
D03*
X1295000Y1435000D02*
D03*
X1296562Y1875000D02*
D03*
X1125000D02*
D03*
X1115000Y1000000D02*
D03*
X1295000D02*
D03*
X1461705Y2745000D02*
D03*
Y2308750D02*
D03*
Y1873100D02*
D03*
Y1436250D02*
D03*
X1465000Y1000000D02*
D03*
X1324527Y2160000D02*
D03*
Y1725000D02*
D03*
Y1285000D02*
D03*
Y850000D02*
D03*
X1340000Y1066900D02*
D03*
Y1505000D02*
D03*
Y1940000D02*
D03*
Y2380000D02*
D03*
Y2815000D02*
D03*
%TF.MD5,1a01258beb1372ac1a8d82f8b70ea0c3*%
M02*
