%TF.GenerationSoftware,Altium Limited,Altium Designer,20.1.12 (249)*%
G04 Layer_Color=16711935*
%FSLAX26Y26*%
%MOIN*%
%TF.SameCoordinates,D7814EA1-E16B-4454-910B-2193EC0156EE*%
%TF.FilePolarity,Positive*%
%TF.FileFunction,Other,Mechanical_13*%
%TF.Part,Single*%
G01*
G75*
%TA.AperFunction,NonConductor*%
%ADD78C,0.003937*%
D78*
X867677Y1343307D02*
G03*
X867677Y1343307I-19685J0D01*
G01*
X1362992Y2170758D02*
G03*
X1362992Y2170758I-19685J0D01*
G01*
X454923Y1789527D02*
G03*
X454923Y1789527I-19685J0D01*
G01*
X1362992Y862008D02*
G03*
X1362992Y862008I-19685J0D01*
G01*
Y1298258D02*
G03*
X1362992Y1298258I-19685J0D01*
G01*
Y1734508D02*
G03*
X1362992Y1734508I-19685J0D01*
G01*
Y2607008D02*
G03*
X1362992Y2607008I-19685J0D01*
G01*
X617244Y1307559D02*
G03*
X617244Y1307559I-19685J0D01*
G01*
X686575Y1378740D02*
X883425D01*
X686575Y1221260D02*
X883425D01*
Y1378740D01*
X686575Y1221260D02*
Y1378740D01*
X910551Y1179055D02*
Y1310945D01*
X979449Y1179055D02*
Y1310945D01*
X910551Y1179055D02*
X979449D01*
X910551Y1310945D02*
X979449D01*
X1187480Y746299D02*
Y783701D01*
X1122520Y746299D02*
Y783701D01*
Y746299D02*
X1187480D01*
X1122520Y783701D02*
X1187480D01*
X590118Y776417D02*
X979882D01*
X590118D02*
Y953583D01*
X979882Y776417D02*
Y953583D01*
X590118D02*
X979882D01*
X1832008Y2756535D02*
Y2823465D01*
X1957992Y2756535D02*
Y2823465D01*
X1832008D02*
X1957992D01*
X1832008Y2756535D02*
X1957992D01*
X1555305Y2451299D02*
Y2488701D01*
X1490344Y2451299D02*
Y2488701D01*
Y2451299D02*
X1555305D01*
X1490344Y2488701D02*
X1555305D01*
X1832008Y2083132D02*
Y2150061D01*
X1957992Y2083132D02*
Y2150061D01*
X1832008D02*
X1957992D01*
X1832008Y2083132D02*
X1957992D01*
X1707480Y2096299D02*
Y2133701D01*
X1642520Y2096299D02*
Y2133701D01*
Y2096299D02*
X1707480D01*
X1642520Y2133701D02*
X1707480D01*
X1832008Y1409728D02*
Y1476657D01*
X1957992Y1409728D02*
Y1476657D01*
X1832008D02*
X1957992D01*
X1832008Y1409728D02*
X1957992D01*
X1727480Y1421299D02*
Y1458701D01*
X1662520Y1421299D02*
Y1458701D01*
Y1421299D02*
X1727480D01*
X1662520Y1458701D02*
X1727480D01*
X1832008Y736324D02*
Y803253D01*
X1957992Y736324D02*
Y803253D01*
X1832008D02*
X1957992D01*
X1832008Y736324D02*
X1957992D01*
X1832008Y62920D02*
Y129849D01*
X1957992Y62920D02*
Y129849D01*
X1832008D02*
X1957992D01*
X1832008Y62920D02*
X1957992D01*
X1702480Y76299D02*
Y113701D01*
X1637520Y76299D02*
Y113701D01*
Y76299D02*
X1702480D01*
X1637520Y113701D02*
X1702480D01*
X108612Y1869961D02*
Y1938858D01*
X146014Y1869961D02*
Y1938858D01*
X108612Y1869961D02*
X146014D01*
X108612Y1938858D02*
X146014D01*
X200861Y1581550D02*
X289945Y1670634D01*
X340055Y1442356D02*
X429139Y1531440D01*
X200861Y1581550D02*
X340055Y1442356D01*
X289945Y1670634D02*
X429139Y1531440D01*
X142825Y1314118D02*
Y1400732D01*
X85738Y1314118D02*
Y1400732D01*
X142825D01*
X85738Y1314118D02*
X142825D01*
X163323Y1492271D02*
X209257Y1538205D01*
X253799Y1401795D02*
X299733Y1447729D01*
X209257Y1538205D02*
X299733Y1447729D01*
X163323Y1492271D02*
X253799Y1401795D01*
X233543Y1254118D02*
Y1340732D01*
X176457Y1254118D02*
Y1340732D01*
X233543D01*
X176457Y1254118D02*
X233543D01*
X385128Y1789527D02*
X580000Y1594656D01*
Y1984399D02*
X774872Y1789527D01*
X385128D02*
X580000Y1984399D01*
Y1594656D02*
X774872Y1789527D01*
X1438465Y1487283D02*
Y1522716D01*
X1371535Y1487283D02*
Y1522716D01*
Y1487283D02*
X1438465D01*
X1371535Y1522716D02*
X1438465D01*
X255433Y1778071D02*
Y1911929D01*
X184567Y1778071D02*
Y1911929D01*
X255433D01*
X184567Y1778071D02*
X255433D01*
X108612Y1745551D02*
X146014D01*
X108612Y1814449D02*
X146014D01*
X108612Y1745551D02*
Y1814449D01*
X146014Y1745551D02*
Y1814449D01*
X1045000Y2474537D02*
Y2632018D01*
X645000D02*
X1045000D01*
X645000Y2474537D02*
Y2632018D01*
Y2474537D02*
X1045000D01*
X782402Y2859577D02*
X791063Y2868238D01*
X782402Y2854656D02*
Y2859577D01*
X798937Y2868238D02*
X807598Y2859577D01*
Y2854656D02*
Y2859577D01*
X791063Y2868238D02*
X798937D01*
X782402Y2843634D02*
Y2854656D01*
Y2632018D02*
Y2843634D01*
X807598Y2632018D02*
Y2843634D01*
Y2854656D01*
X707598Y2843634D02*
Y2854656D01*
Y2632018D02*
Y2843634D01*
X682402Y2632018D02*
Y2843634D01*
Y2854656D01*
X691063Y2868238D02*
X698937D01*
X707598Y2854656D02*
Y2859577D01*
X698937Y2868238D02*
X707598Y2859577D01*
X682402Y2854656D02*
Y2859577D01*
X691063Y2868238D01*
X907598Y2843634D02*
Y2854656D01*
Y2632018D02*
Y2843634D01*
X882402Y2632018D02*
Y2843634D01*
Y2854656D01*
X891063Y2868238D02*
X898937D01*
X907598Y2854656D02*
Y2859577D01*
X898937Y2868238D02*
X907598Y2859577D01*
X882402Y2854656D02*
Y2859577D01*
X891063Y2868238D01*
X982402Y2859577D02*
X991063Y2868238D01*
X982402Y2854656D02*
Y2859577D01*
X998937Y2868238D02*
X1007598Y2859577D01*
Y2854656D02*
Y2859577D01*
X991063Y2868238D02*
X998937D01*
X982402Y2843634D02*
Y2854656D01*
Y2632018D02*
Y2843634D01*
X1007598Y2632018D02*
Y2843634D01*
Y2854656D01*
X868071Y1115433D02*
X1001929D01*
X868071Y1044567D02*
X1001929D01*
X868071D02*
Y1115433D01*
X1001929Y1044567D02*
Y1115433D01*
X914567Y1753071D02*
Y1886929D01*
X985433Y1753071D02*
Y1886929D01*
X914567Y1753071D02*
X985433D01*
X914567Y1886929D02*
X985433D01*
X1378740Y1262825D02*
Y1459675D01*
X1221260Y1262825D02*
Y1459675D01*
Y1262825D02*
X1378740D01*
X1221260Y1459675D02*
X1378740D01*
X1221260Y1895925D02*
X1378740D01*
X1221260Y1699075D02*
X1378740D01*
X1221260D02*
Y1895925D01*
X1378740Y1699075D02*
Y1895925D01*
X1371535Y1957716D02*
X1438465D01*
X1371535Y1922283D02*
X1438465D01*
X1371535D02*
Y1957716D01*
X1438465Y1922283D02*
Y1957716D01*
X564961Y2456535D02*
Y2523465D01*
X435039Y2456535D02*
Y2523465D01*
Y2456535D02*
X564961D01*
X435039Y2523465D02*
X564961D01*
Y2581535D02*
Y2648465D01*
X435039Y2581535D02*
Y2648465D01*
Y2581535D02*
X564961D01*
X435039Y2648465D02*
X564961D01*
X568071Y2096388D02*
Y2167254D01*
X701929Y2096388D02*
Y2167254D01*
X568071D02*
X701929D01*
X568071Y2096388D02*
X701929D01*
X1438465Y1049183D02*
Y1084616D01*
X1371535Y1049183D02*
Y1084616D01*
Y1049183D02*
X1438465D01*
X1371535Y1084616D02*
X1438465D01*
X1378740Y826575D02*
Y1023425D01*
X1221260Y826575D02*
Y1023425D01*
Y826575D02*
X1378740D01*
X1221260Y1023425D02*
X1378740D01*
X1438465Y2797283D02*
Y2832716D01*
X1371535Y2797283D02*
Y2832716D01*
Y2797283D02*
X1438465D01*
X1371535Y2832716D02*
X1438465D01*
X1378740Y2571575D02*
Y2768425D01*
X1221260Y2571575D02*
Y2768425D01*
Y2571575D02*
X1378740D01*
X1221260Y2768425D02*
X1378740D01*
X1221260Y2332175D02*
X1378740D01*
X1221260Y2135325D02*
X1378740D01*
X1221260D02*
Y2332175D01*
X1378740Y2135325D02*
Y2332175D01*
X1371535Y2397716D02*
X1438465D01*
X1371535Y2362283D02*
X1438465D01*
X1371535D02*
Y2397716D01*
X1438465Y2362283D02*
Y2397716D01*
X337992Y2576535D02*
Y2643465D01*
X212008Y2576535D02*
Y2643465D01*
Y2576535D02*
X337992D01*
X212008Y2643465D02*
X337992D01*
Y2471535D02*
Y2538465D01*
X212008Y2471535D02*
Y2538465D01*
Y2471535D02*
X337992D01*
X212008Y2538465D02*
X337992D01*
X507008Y1342992D02*
X632992D01*
X507008Y1217008D02*
X632992D01*
Y1342992D01*
X507008Y1217008D02*
Y1342992D01*
X360551Y1234055D02*
Y1365945D01*
X429449Y1234055D02*
Y1365945D01*
X360551Y1234055D02*
X429449D01*
X360551Y1365945D02*
X429449D01*
X451722Y1236535D02*
Y1303465D01*
X487155Y1236535D02*
Y1303465D01*
X451722Y1236535D02*
X487155D01*
X451722Y1303465D02*
X487155D01*
X468898Y894265D02*
Y969068D01*
X331102Y894265D02*
Y969068D01*
Y894265D02*
X468898D01*
X331102Y969068D02*
X468898D01*
Y995932D02*
Y1070735D01*
X331102Y995932D02*
Y1070735D01*
Y995932D02*
X468898D01*
X331102Y1070735D02*
X468898D01*
Y792598D02*
Y867402D01*
X331102Y792598D02*
Y867402D01*
Y792598D02*
X468898D01*
X331102Y867402D02*
X468898D01*
Y1097598D02*
Y1172401D01*
X331102Y1097598D02*
Y1172401D01*
Y1097598D02*
X468898D01*
X331102Y1172401D02*
X468898D01*
%TF.MD5,1867c2cbdb385074a28395b2d6fa6009*%
M02*
