%TF.GenerationSoftware,Altium Limited,Altium Designer,20.1.12 (249)*%
G04 Layer_Color=2752767*
%FSLAX26Y26*%
%MOIN*%
%TF.SameCoordinates,D7814EA1-E16B-4454-910B-2193EC0156EE*%
%TF.FilePolarity,Positive*%
%TF.FileFunction,Drawing*%
%TF.Part,Single*%
G01*
G75*
%TA.AperFunction,NonConductor*%
%ADD89C,0.005000*%
%ADD90C,0.006667*%
D89*
X1060000Y1570000D02*
Y1610000D01*
X1100000D01*
Y1570000D01*
X1060000D01*
X100000Y775000D02*
Y815000D01*
X140000D01*
Y775000D01*
X100000D01*
Y2800000D02*
Y2840000D01*
X140000D01*
Y2800000D01*
X100000D01*
X1800000Y1242274D02*
X1780000Y1282274D01*
X1820000D01*
X1800000Y1242274D01*
Y931250D02*
X1780000Y971250D01*
X1820000D01*
X1800000Y931250D01*
Y1918524D02*
X1780000Y1958524D01*
X1820000D01*
X1800000Y1918524D01*
Y1607500D02*
X1780000Y1647500D01*
X1820000D01*
X1800000Y1607500D01*
Y2594774D02*
X1780000Y2634774D01*
X1820000D01*
X1800000Y2594774D01*
Y2283750D02*
X1780000Y2323750D01*
X1820000D01*
X1800000Y2283750D01*
Y3271024D02*
X1780000Y3311024D01*
X1820000D01*
X1800000Y3271024D01*
Y2960000D02*
X1780000Y3000000D01*
X1820000D01*
X1800000Y2960000D01*
Y566024D02*
X1780000Y606024D01*
X1820000D01*
X1800000Y566024D01*
Y255000D02*
X1780000Y295000D01*
X1820000D01*
X1800000Y255000D01*
X745000Y2562018D02*
X755000Y2572018D01*
X765000D01*
X755000Y2582018D01*
X765000Y2592018D01*
X755000D01*
X745000Y2602018D01*
X735000Y2592018D01*
X725000D01*
X735000Y2582018D01*
X725000Y2572018D01*
X735000D01*
X745000Y2562018D01*
X945000D02*
X955000Y2572018D01*
X965000D01*
X955000Y2582018D01*
X965000Y2592018D01*
X955000D01*
X945000Y2602018D01*
X935000Y2592018D01*
X925000D01*
X935000Y2582018D01*
X925000Y2572018D01*
X935000D01*
X945000Y2562018D01*
X480000Y2290000D02*
X490000Y2310000D01*
X480000Y2330000D01*
X500000Y2320000D01*
X520000Y2330000D01*
X510000Y2310000D01*
X520000Y2290000D01*
X500000Y2300000D01*
X480000Y2290000D01*
X492349Y1852349D02*
X502349Y1872349D01*
X492349Y1892349D01*
X512349Y1882349D01*
X532349Y1892349D01*
X522349Y1872349D01*
X532349Y1852349D01*
X512349Y1862349D01*
X492349Y1852349D01*
X555000Y2045000D02*
X565000Y2065000D01*
X555000Y2085000D01*
X575000Y2075000D01*
X595000Y2085000D01*
X585000Y2065000D01*
X595000Y2045000D01*
X575000Y2055000D01*
X555000Y2045000D01*
X675000D02*
X685000Y2065000D01*
X675000Y2085000D01*
X695000Y2075000D01*
X715000Y2085000D01*
X705000Y2065000D01*
X715000Y2045000D01*
X695000Y2055000D01*
X675000Y2045000D01*
X1305000Y2575000D02*
X1315000Y2595000D01*
X1305000Y2615000D01*
X1325000Y2605000D01*
X1345000Y2615000D01*
X1335000Y2595000D01*
X1345000Y2575000D01*
X1325000Y2585000D01*
X1305000Y2575000D01*
X635000Y1365000D02*
X645000Y1385000D01*
X635000Y1405000D01*
X655000Y1395000D01*
X675000Y1405000D01*
X665000Y1385000D01*
X675000Y1365000D01*
X655000Y1375000D01*
X635000Y1365000D01*
X416620Y1775961D02*
X426620Y1795961D01*
X416620Y1815961D01*
X436620Y1805961D01*
X456620Y1815961D01*
X446620Y1795961D01*
X456620Y1775961D01*
X436620Y1785961D01*
X416620Y1775961D01*
X295000Y1715000D02*
X305000Y1735000D01*
X295000Y1755000D01*
X315000Y1745000D01*
X335000Y1755000D01*
X325000Y1735000D01*
X335000Y1715000D01*
X315000Y1725000D01*
X295000Y1715000D01*
X470000Y1740000D02*
X480000Y1760000D01*
X470000Y1780000D01*
X490000Y1770000D01*
X510000Y1780000D01*
X500000Y1760000D01*
X510000Y1740000D01*
X490000Y1750000D01*
X470000Y1740000D01*
X535000D02*
X545000Y1760000D01*
X535000Y1780000D01*
X555000Y1770000D01*
X575000Y1780000D01*
X565000Y1760000D01*
X575000Y1740000D01*
X555000Y1750000D01*
X535000Y1740000D01*
X1099427Y1416250D02*
X1109427Y1436250D01*
X1099427Y1456250D01*
X1119427Y1446250D01*
X1139427Y1456250D01*
X1129427Y1436250D01*
X1139427Y1416250D01*
X1119427Y1426250D01*
X1099427Y1416250D01*
X1480000Y2500000D02*
X1490000Y2520000D01*
X1480000Y2540000D01*
X1500000Y2530000D01*
X1520000Y2540000D01*
X1510000Y2520000D01*
X1520000Y2500000D01*
X1500000Y2510000D01*
X1480000Y2500000D01*
X1935000Y1360000D02*
X1945000Y1380000D01*
X1935000Y1400000D01*
X1955000Y1390000D01*
X1975000Y1400000D01*
X1965000Y1380000D01*
X1975000Y1360000D01*
X1955000Y1370000D01*
X1935000Y1360000D01*
X710000Y1510000D02*
X720000Y1530000D01*
X710000Y1550000D01*
X730000Y1540000D01*
X750000Y1550000D01*
X740000Y1530000D01*
X750000Y1510000D01*
X730000Y1520000D01*
X710000Y1510000D01*
X740000Y1460000D02*
X750000Y1480000D01*
X740000Y1500000D01*
X760000Y1490000D01*
X780000Y1500000D01*
X770000Y1480000D01*
X780000Y1460000D01*
X760000Y1470000D01*
X740000Y1460000D01*
X585000Y1805000D02*
X595000Y1825000D01*
X585000Y1845000D01*
X605000Y1835000D01*
X625000Y1845000D01*
X615000Y1825000D01*
X625000Y1805000D01*
X605000Y1815000D01*
X585000Y1805000D01*
X2005000Y75000D02*
X2015000Y95000D01*
X2005000Y115000D01*
X2025000Y105000D01*
X2045000Y115000D01*
X2035000Y95000D01*
X2045000Y75000D01*
X2025000Y85000D01*
X2005000Y75000D01*
X1930000Y825000D02*
X1940000Y845000D01*
X1930000Y865000D01*
X1950000Y855000D01*
X1970000Y865000D01*
X1960000Y845000D01*
X1970000Y825000D01*
X1950000Y835000D01*
X1930000Y825000D01*
X665000Y1545000D02*
X675000Y1565000D01*
X665000Y1585000D01*
X685000Y1575000D01*
X705000Y1585000D01*
X695000Y1565000D01*
X705000Y1545000D01*
X685000Y1555000D01*
X665000Y1545000D01*
X1930000Y2015000D02*
X1940000Y2035000D01*
X1930000Y2055000D01*
X1950000Y2045000D01*
X1970000Y2055000D01*
X1960000Y2035000D01*
X1970000Y2015000D01*
X1950000Y2025000D01*
X1930000Y2015000D01*
X1935000Y2685000D02*
X1945000Y2705000D01*
X1935000Y2725000D01*
X1955000Y2715000D01*
X1975000Y2725000D01*
X1965000Y2705000D01*
X1975000Y2685000D01*
X1955000Y2695000D01*
X1935000Y2685000D01*
X775000Y1515000D02*
X785000Y1535000D01*
X775000Y1555000D01*
X795000Y1545000D01*
X815000Y1555000D01*
X805000Y1535000D01*
X815000Y1515000D01*
X795000Y1525000D01*
X775000Y1515000D01*
X1750000Y745000D02*
X1760000Y765000D01*
X1750000Y785000D01*
X1770000Y775000D01*
X1790000Y785000D01*
X1780000Y765000D01*
X1790000Y745000D01*
X1770000Y755000D01*
X1750000Y745000D01*
X1530000D02*
X1540000Y765000D01*
X1530000Y785000D01*
X1550000Y775000D01*
X1570000Y785000D01*
X1560000Y765000D01*
X1570000Y745000D01*
X1550000Y755000D01*
X1530000Y745000D01*
X1575000Y75000D02*
X1585000Y95000D01*
X1575000Y115000D01*
X1595000Y105000D01*
X1615000Y115000D01*
X1605000Y95000D01*
X1615000Y75000D01*
X1595000Y85000D01*
X1575000Y75000D01*
X1040000Y745000D02*
X1050000Y765000D01*
X1040000Y785000D01*
X1060000Y775000D01*
X1080000Y785000D01*
X1070000Y765000D01*
X1080000Y745000D01*
X1060000Y755000D01*
X1040000Y745000D01*
X1585000Y1420000D02*
X1595000Y1440000D01*
X1585000Y1460000D01*
X1605000Y1450000D01*
X1625000Y1460000D01*
X1615000Y1440000D01*
X1625000Y1420000D01*
X1605000Y1430000D01*
X1585000Y1420000D01*
X1630000Y2140000D02*
X1640000Y2160000D01*
X1630000Y2180000D01*
X1650000Y2170000D01*
X1670000Y2180000D01*
X1660000Y2160000D01*
X1670000Y2140000D01*
X1650000Y2150000D01*
X1630000Y2140000D01*
X775000Y2160000D02*
X785000Y2180000D01*
X775000Y2200000D01*
X795000Y2190000D01*
X815000Y2200000D01*
X805000Y2180000D01*
X815000Y2160000D01*
X795000Y2170000D01*
X775000Y2160000D01*
X595000Y2245000D02*
X605000Y2265000D01*
X595000Y2285000D01*
X615000Y2275000D01*
X635000Y2285000D01*
X625000Y2265000D01*
X635000Y2245000D01*
X615000Y2255000D01*
X595000Y2245000D01*
X1248750Y2188750D02*
X1258750Y2208750D01*
X1248750Y2228750D01*
X1268750Y2218750D01*
X1288750Y2228750D01*
X1278750Y2208750D01*
X1288750Y2188750D01*
X1268750Y2198750D01*
X1248750Y2188750D01*
X1040000Y2160000D02*
X1050000Y2180000D01*
X1040000Y2200000D01*
X1060000Y2190000D01*
X1080000Y2200000D01*
X1070000Y2180000D01*
X1080000Y2160000D01*
X1060000Y2170000D01*
X1040000Y2160000D01*
X1105355Y2287105D02*
X1115355Y2307105D01*
X1105355Y2327105D01*
X1125355Y2317105D01*
X1145355Y2327105D01*
X1135355Y2307105D01*
X1145355Y2287105D01*
X1125355Y2297105D01*
X1105355Y2287105D01*
X1040000Y2285000D02*
X1050000Y2305000D01*
X1040000Y2325000D01*
X1060000Y2315000D01*
X1080000Y2325000D01*
X1070000Y2305000D01*
X1080000Y2285000D01*
X1060000Y2295000D01*
X1040000Y2285000D01*
X1070000Y2420000D02*
X1080000Y2440000D01*
X1070000Y2460000D01*
X1090000Y2450000D01*
X1110000Y2460000D01*
X1100000Y2440000D01*
X1110000Y2420000D01*
X1090000Y2430000D01*
X1070000Y2420000D01*
X580000Y1735000D02*
X590000Y1755000D01*
X580000Y1775000D01*
X600000Y1765000D01*
X620000Y1775000D01*
X610000Y1755000D01*
X620000Y1735000D01*
X600000Y1745000D01*
X580000Y1735000D01*
X1250000Y2675000D02*
X1260000Y2695000D01*
X1250000Y2715000D01*
X1270000Y2705000D01*
X1290000Y2715000D01*
X1280000Y2695000D01*
X1290000Y2675000D01*
X1270000Y2685000D01*
X1250000Y2675000D01*
X1220000Y2465000D02*
X1230000Y2485000D01*
X1220000Y2505000D01*
X1240000Y2495000D01*
X1260000Y2505000D01*
X1250000Y2485000D01*
X1260000Y2465000D01*
X1240000Y2475000D01*
X1220000Y2465000D01*
X495000Y2595000D02*
X505000Y2615000D01*
X495000Y2635000D01*
X515000Y2625000D01*
X535000Y2635000D01*
X525000Y2615000D01*
X535000Y2595000D01*
X515000Y2605000D01*
X495000Y2595000D01*
X245000Y2540000D02*
X255000Y2560000D01*
X245000Y2580000D01*
X265000Y2570000D01*
X285000Y2580000D01*
X275000Y2560000D01*
X285000Y2540000D01*
X265000Y2550000D01*
X245000Y2540000D01*
X305000Y2375000D02*
X315000Y2395000D01*
X305000Y2415000D01*
X325000Y2405000D01*
X345000Y2415000D01*
X335000Y2395000D01*
X345000Y2375000D01*
X325000Y2385000D01*
X305000Y2375000D01*
X185000Y1195000D02*
X195000Y1215000D01*
X185000Y1235000D01*
X205000Y1225000D01*
X225000Y1235000D01*
X215000Y1215000D01*
X225000Y1195000D01*
X205000Y1205000D01*
X185000Y1195000D01*
X95000Y1260000D02*
X105000Y1280000D01*
X95000Y1300000D01*
X115000Y1290000D01*
X135000Y1300000D01*
X125000Y1280000D01*
X135000Y1260000D01*
X115000Y1270000D01*
X95000Y1260000D01*
X265000Y1885000D02*
X275000Y1905000D01*
X265000Y1925000D01*
X285000Y1915000D01*
X305000Y1925000D01*
X295000Y1905000D01*
X305000Y1885000D01*
X285000Y1895000D01*
X265000Y1885000D01*
X855000Y1720000D02*
X865000Y1740000D01*
X855000Y1760000D01*
X875000Y1750000D01*
X895000Y1760000D01*
X885000Y1740000D01*
X895000Y1720000D01*
X875000Y1730000D01*
X855000Y1720000D01*
X840000Y1855000D02*
X850000Y1875000D01*
X840000Y1895000D01*
X860000Y1885000D01*
X880000Y1895000D01*
X870000Y1875000D01*
X880000Y1855000D01*
X860000Y1865000D01*
X840000Y1855000D01*
X855000Y1120000D02*
X865000Y1140000D01*
X855000Y1160000D01*
X875000Y1150000D01*
X895000Y1160000D01*
X885000Y1140000D01*
X895000Y1120000D01*
X875000Y1130000D01*
X855000Y1120000D01*
X975000D02*
X985000Y1140000D01*
X975000Y1160000D01*
X995000Y1150000D01*
X1015000Y1160000D01*
X1005000Y1140000D01*
X1015000Y1120000D01*
X995000Y1130000D01*
X975000Y1120000D01*
X985000Y1175000D02*
X995000Y1195000D01*
X985000Y1215000D01*
X1005000Y1205000D01*
X1025000Y1215000D01*
X1015000Y1195000D01*
X1025000Y1175000D01*
X1005000Y1185000D01*
X985000Y1175000D01*
X925000Y1330000D02*
X935000Y1350000D01*
X925000Y1370000D01*
X945000Y1360000D01*
X965000Y1370000D01*
X955000Y1350000D01*
X965000Y1330000D01*
X945000Y1340000D01*
X925000Y1330000D01*
X315591Y1229409D02*
X325591Y1249409D01*
X315591Y1269409D01*
X335591Y1259409D01*
X355591Y1269409D01*
X345591Y1249409D01*
X355591Y1229409D01*
X335591Y1239409D01*
X315591Y1229409D01*
Y1331772D02*
X325591Y1351772D01*
X315591Y1371772D01*
X335591Y1361772D01*
X355591Y1371772D01*
X345591Y1351772D01*
X355591Y1331772D01*
X335591Y1341772D01*
X315591Y1331772D01*
X434409Y1330591D02*
X444409Y1350591D01*
X434409Y1370591D01*
X454409Y1360591D01*
X474409Y1370591D01*
X464409Y1350591D01*
X474409Y1330591D01*
X454409Y1340591D01*
X434409Y1330591D01*
X510404Y1394597D02*
X520404Y1414597D01*
X510404Y1434597D01*
X530404Y1424597D01*
X550404Y1434597D01*
X540404Y1414597D01*
X550404Y1394597D01*
X530404Y1404597D01*
X510404Y1394597D01*
X588386Y1435000D02*
X598386Y1455000D01*
X588386Y1475000D01*
X608386Y1465000D01*
X628386Y1475000D01*
X618386Y1455000D01*
X628386Y1435000D01*
X608386Y1445000D01*
X588386Y1435000D01*
X537205Y1432795D02*
X547205Y1452795D01*
X537205Y1472795D01*
X557205Y1462795D01*
X577205Y1472795D01*
X567205Y1452795D01*
X577205Y1432795D01*
X557205Y1442795D01*
X537205Y1432795D01*
X562795Y1397795D02*
X572795Y1417795D01*
X562795Y1437795D01*
X582795Y1427795D01*
X602795Y1437795D01*
X592795Y1417795D01*
X602795Y1397795D01*
X582795Y1407795D01*
X562795Y1397795D01*
X265000Y810000D02*
X275000Y830000D01*
X265000Y850000D01*
X285000Y840000D01*
X305000Y850000D01*
X295000Y830000D01*
X305000Y810000D01*
X285000Y820000D01*
X265000Y810000D01*
Y915000D02*
X275000Y935000D01*
X265000Y955000D01*
X285000Y945000D01*
X305000Y955000D01*
X295000Y935000D01*
X305000Y915000D01*
X285000Y925000D01*
X265000Y915000D01*
Y1010000D02*
X275000Y1030000D01*
X265000Y1050000D01*
X285000Y1040000D01*
X305000Y1050000D01*
X295000Y1030000D01*
X305000Y1010000D01*
X285000Y1020000D01*
X265000Y1010000D01*
Y1115000D02*
X275000Y1135000D01*
X265000Y1155000D01*
X285000Y1145000D01*
X305000Y1155000D01*
X295000Y1135000D01*
X305000Y1115000D01*
X285000Y1125000D01*
X265000Y1115000D01*
X440000Y1580000D02*
X450000Y1600000D01*
X440000Y1620000D01*
X460000Y1610000D01*
X480000Y1620000D01*
X470000Y1600000D01*
X480000Y1580000D01*
X460000Y1590000D01*
X440000Y1580000D01*
X515000Y1680000D02*
X525000Y1700000D01*
X515000Y1720000D01*
X535000Y1710000D01*
X555000Y1720000D01*
X545000Y1700000D01*
X555000Y1680000D01*
X535000Y1690000D01*
X515000Y1680000D01*
X537230Y1850713D02*
X547230Y1870713D01*
X537230Y1890713D01*
X557230Y1880713D01*
X577230Y1890713D01*
X567230Y1870713D01*
X577230Y1850713D01*
X557230Y1860713D01*
X537230Y1850713D01*
X569313Y1889062D02*
X579313Y1909062D01*
X569313Y1929062D01*
X589313Y1919062D01*
X609313Y1929062D01*
X599313Y1909062D01*
X609313Y1889062D01*
X589313Y1899062D01*
X569313Y1889062D01*
X690000Y1975000D02*
X700000Y1995000D01*
X690000Y2015000D01*
X710000Y2005000D01*
X730000Y2015000D01*
X720000Y1995000D01*
X730000Y1975000D01*
X710000Y1985000D01*
X690000Y1975000D01*
X610000Y1860000D02*
X620000Y1880000D01*
X610000Y1900000D01*
X630000Y1890000D01*
X650000Y1900000D01*
X640000Y1880000D01*
X650000Y1860000D01*
X630000Y1870000D01*
X610000Y1860000D01*
X690000Y1435000D02*
X700000Y1455000D01*
X690000Y1475000D01*
X710000Y1465000D01*
X730000Y1475000D01*
X720000Y1455000D01*
X730000Y1435000D01*
X710000Y1445000D01*
X690000Y1435000D01*
X840000Y1440000D02*
X850000Y1460000D01*
X840000Y1480000D01*
X860000Y1470000D01*
X880000Y1480000D01*
X870000Y1460000D01*
X880000Y1440000D01*
X860000Y1450000D01*
X840000Y1440000D01*
X740000Y1330000D02*
X750000Y1350000D01*
X740000Y1370000D01*
X760000Y1360000D01*
X780000Y1370000D01*
X770000Y1350000D01*
X780000Y1330000D01*
X760000Y1340000D01*
X740000Y1330000D01*
X840000Y1230000D02*
X850000Y1250000D01*
X840000Y1270000D01*
X860000Y1260000D01*
X880000Y1270000D01*
X870000Y1250000D01*
X880000Y1230000D01*
X860000Y1240000D01*
X840000Y1230000D01*
X790000Y1330000D02*
X800000Y1350000D01*
X790000Y1370000D01*
X810000Y1360000D01*
X830000Y1370000D01*
X820000Y1350000D01*
X830000Y1330000D01*
X810000Y1340000D01*
X790000Y1330000D01*
Y1105000D02*
X800000Y1125000D01*
X790000Y1145000D01*
X810000Y1135000D01*
X830000Y1145000D01*
X820000Y1125000D01*
X830000Y1105000D01*
X810000Y1115000D01*
X790000Y1105000D01*
X225000Y2034183D02*
X235000Y2054183D01*
X225000Y2074183D01*
X245000Y2064183D01*
X265000Y2074183D01*
X255000Y2054183D01*
X265000Y2034183D01*
X245000Y2044183D01*
X225000Y2034183D01*
Y2349183D02*
X235000Y2369183D01*
X225000Y2389183D01*
X245000Y2379183D01*
X265000Y2389183D01*
X255000Y2369183D01*
X265000Y2349183D01*
X245000Y2359183D01*
X225000Y2349183D01*
X1275000Y1970000D02*
X1285000Y1990000D01*
X1275000Y2010000D01*
X1295000Y2000000D01*
X1315000Y2010000D01*
X1305000Y1990000D01*
X1315000Y1970000D01*
X1295000Y1980000D01*
X1275000Y1970000D01*
X1205000D02*
X1215000Y1990000D01*
X1205000Y2010000D01*
X1225000Y2000000D01*
X1245000Y2010000D01*
X1235000Y1990000D01*
X1245000Y1970000D01*
X1225000Y1980000D01*
X1205000Y1970000D01*
X1276875Y2290000D02*
X1286875Y2310000D01*
X1276875Y2330000D01*
X1296875Y2320000D01*
X1316875Y2330000D01*
X1306875Y2310000D01*
X1316875Y2290000D01*
X1296875Y2300000D01*
X1276875Y2290000D01*
X1275000Y1415000D02*
X1285000Y1435000D01*
X1275000Y1455000D01*
X1295000Y1445000D01*
X1315000Y1455000D01*
X1305000Y1435000D01*
X1315000Y1415000D01*
X1295000Y1425000D01*
X1275000Y1415000D01*
X1276562Y1855000D02*
X1286562Y1875000D01*
X1276562Y1895000D01*
X1296562Y1885000D01*
X1316562Y1895000D01*
X1306562Y1875000D01*
X1316562Y1855000D01*
X1296562Y1865000D01*
X1276562Y1855000D01*
X1105000D02*
X1115000Y1875000D01*
X1105000Y1895000D01*
X1125000Y1885000D01*
X1145000Y1895000D01*
X1135000Y1875000D01*
X1145000Y1855000D01*
X1125000Y1865000D01*
X1105000Y1855000D01*
X1095000Y980000D02*
X1105000Y1000000D01*
X1095000Y1020000D01*
X1115000Y1010000D01*
X1135000Y1020000D01*
X1125000Y1000000D01*
X1135000Y980000D01*
X1115000Y990000D01*
X1095000Y980000D01*
X1275000D02*
X1285000Y1000000D01*
X1275000Y1020000D01*
X1295000Y1010000D01*
X1315000Y1020000D01*
X1305000Y1000000D01*
X1315000Y980000D01*
X1295000Y990000D01*
X1275000Y980000D01*
X1441705Y2725000D02*
X1451705Y2745000D01*
X1441705Y2765000D01*
X1461705Y2755000D01*
X1481705Y2765000D01*
X1471705Y2745000D01*
X1481705Y2725000D01*
X1461705Y2735000D01*
X1441705Y2725000D01*
Y2288750D02*
X1451705Y2308750D01*
X1441705Y2328750D01*
X1461705Y2318750D01*
X1481705Y2328750D01*
X1471705Y2308750D01*
X1481705Y2288750D01*
X1461705Y2298750D01*
X1441705Y2288750D01*
Y1853100D02*
X1451705Y1873100D01*
X1441705Y1893100D01*
X1461705Y1883100D01*
X1481705Y1893100D01*
X1471705Y1873100D01*
X1481705Y1853100D01*
X1461705Y1863100D01*
X1441705Y1853100D01*
Y1416250D02*
X1451705Y1436250D01*
X1441705Y1456250D01*
X1461705Y1446250D01*
X1481705Y1456250D01*
X1471705Y1436250D01*
X1481705Y1416250D01*
X1461705Y1426250D01*
X1441705Y1416250D01*
X1445000Y980000D02*
X1455000Y1000000D01*
X1445000Y1020000D01*
X1465000Y1010000D01*
X1485000Y1020000D01*
X1475000Y1000000D01*
X1485000Y980000D01*
X1465000Y990000D01*
X1445000Y980000D01*
X1304527Y2140000D02*
X1314527Y2160000D01*
X1304527Y2180000D01*
X1324527Y2170000D01*
X1344527Y2180000D01*
X1334527Y2160000D01*
X1344527Y2140000D01*
X1324527Y2150000D01*
X1304527Y2140000D01*
Y1705000D02*
X1314527Y1725000D01*
X1304527Y1745000D01*
X1324527Y1735000D01*
X1344527Y1745000D01*
X1334527Y1725000D01*
X1344527Y1705000D01*
X1324527Y1715000D01*
X1304527Y1705000D01*
Y1265000D02*
X1314527Y1285000D01*
X1304527Y1305000D01*
X1324527Y1295000D01*
X1344527Y1305000D01*
X1334527Y1285000D01*
X1344527Y1265000D01*
X1324527Y1275000D01*
X1304527Y1265000D01*
Y830000D02*
X1314527Y850000D01*
X1304527Y870000D01*
X1324527Y860000D01*
X1344527Y870000D01*
X1334527Y850000D01*
X1344527Y830000D01*
X1324527Y840000D01*
X1304527Y830000D01*
X1320000Y1046900D02*
X1330000Y1066900D01*
X1320000Y1086900D01*
X1340000Y1076900D01*
X1360000Y1086900D01*
X1350000Y1066900D01*
X1360000Y1046900D01*
X1340000Y1056900D01*
X1320000Y1046900D01*
Y1485000D02*
X1330000Y1505000D01*
X1320000Y1525000D01*
X1340000Y1515000D01*
X1360000Y1525000D01*
X1350000Y1505000D01*
X1360000Y1485000D01*
X1340000Y1495000D01*
X1320000Y1485000D01*
Y1920000D02*
X1330000Y1940000D01*
X1320000Y1960000D01*
X1340000Y1950000D01*
X1360000Y1960000D01*
X1350000Y1940000D01*
X1360000Y1920000D01*
X1340000Y1930000D01*
X1320000Y1920000D01*
Y2360000D02*
X1330000Y2380000D01*
X1320000Y2400000D01*
X1340000Y2390000D01*
X1360000Y2400000D01*
X1350000Y2380000D01*
X1360000Y2360000D01*
X1340000Y2370000D01*
X1320000Y2360000D01*
Y2795000D02*
X1330000Y2815000D01*
X1320000Y2835000D01*
X1340000Y2825000D01*
X1360000Y2835000D01*
X1350000Y2815000D01*
X1360000Y2795000D01*
X1340000Y2805000D01*
X1320000Y2795000D01*
D90*
X844370Y886654D02*
G03*
X844370Y886654I-20000J0D01*
G01*
X765630D02*
G03*
X765630Y886654I-20000J0D01*
G01*
X686890D02*
G03*
X686890Y886654I-20000J0D01*
G01*
X923110D02*
G03*
X923110Y886654I-20000J0D01*
G01*
%TF.MD5,2a89fed51bccb3092d4157265ab23f21*%
M02*
