%TF.GenerationSoftware,Altium Limited,Altium Designer,20.1.12 (249)*%
G04 Layer_Color=128*
%FSLAX26Y26*%
%MOIN*%
%TF.SameCoordinates,D7814EA1-E16B-4454-910B-2193EC0156EE*%
%TF.FilePolarity,Positive*%
%TF.FileFunction,Drillmap*%
%TF.Part,Single*%
G01*
G75*
%TA.AperFunction,NonConductor*%
%ADD89C,0.005000*%
D89*
X1018976Y1590000D02*
X1141024D01*
X1080000Y1528976D02*
Y1651024D01*
X58976Y795000D02*
X181024D01*
X120000Y733976D02*
Y856024D01*
X58976Y2820000D02*
X181024D01*
X120000Y2758976D02*
Y2881024D01*
X804685Y886654D02*
X844055D01*
X824370Y866968D02*
Y906338D01*
X725945Y886654D02*
X765315D01*
X745630Y866968D02*
Y906338D01*
X647205Y886654D02*
X686575D01*
X666890Y866968D02*
Y906338D01*
X883425Y886654D02*
X922795D01*
X903110Y866968D02*
Y906338D01*
X1769488Y1262274D02*
X1830512D01*
X1800000Y1231762D02*
Y1292785D01*
X1769488Y951250D02*
X1830512D01*
X1800000Y920738D02*
Y981762D01*
X1769488Y1938524D02*
X1830512D01*
X1800000Y1908012D02*
Y1969035D01*
X1769488Y1627500D02*
X1830512D01*
X1800000Y1596988D02*
Y1658012D01*
X1769488Y2614774D02*
X1830512D01*
X1800000Y2584262D02*
Y2645285D01*
X1769488Y2303750D02*
X1830512D01*
X1800000Y2273238D02*
Y2334262D01*
X1769488Y3291024D02*
X1830512D01*
X1800000Y3260512D02*
Y3321535D01*
X1769488Y2980000D02*
X1830512D01*
X1800000Y2949488D02*
Y3010512D01*
X1769488Y586024D02*
X1830512D01*
X1800000Y555512D02*
Y616535D01*
X1769488Y275000D02*
X1830512D01*
X1800000Y244488D02*
Y305512D01*
X711929Y2582018D02*
X778071D01*
X745000Y2548947D02*
Y2615089D01*
X911929Y2582018D02*
X978071D01*
X945000Y2548947D02*
Y2615089D01*
X495000Y2310000D02*
X505000D01*
X500000Y2305000D02*
Y2315000D01*
X507349Y1872349D02*
X517349D01*
X512349Y1867349D02*
Y1877349D01*
X570000Y2065000D02*
X580000D01*
X575000Y2060000D02*
Y2070000D01*
X690000Y2065000D02*
X700000D01*
X695000Y2060000D02*
Y2070000D01*
X1320000Y2595000D02*
X1330000D01*
X1325000Y2590000D02*
Y2600000D01*
X650000Y1385000D02*
X660000D01*
X655000Y1380000D02*
Y1390000D01*
X431620Y1795961D02*
X441620D01*
X436620Y1790961D02*
Y1800961D01*
X310000Y1735000D02*
X320000D01*
X315000Y1730000D02*
Y1740000D01*
X485000Y1760000D02*
X495000D01*
X490000Y1755000D02*
Y1765000D01*
X550000Y1760000D02*
X560000D01*
X555000Y1755000D02*
Y1765000D01*
X1114427Y1436250D02*
X1124427D01*
X1119427Y1431250D02*
Y1441250D01*
X1495000Y2520000D02*
X1505000D01*
X1500000Y2515000D02*
Y2525000D01*
X1950000Y1380000D02*
X1960000D01*
X1955000Y1375000D02*
Y1385000D01*
X725000Y1530000D02*
X735000D01*
X730000Y1525000D02*
Y1535000D01*
X755000Y1480000D02*
X765000D01*
X760000Y1475000D02*
Y1485000D01*
X600000Y1825000D02*
X610000D01*
X605000Y1820000D02*
Y1830000D01*
X2020000Y95000D02*
X2030000D01*
X2025000Y90000D02*
Y100000D01*
X1945000Y845000D02*
X1955000D01*
X1950000Y840000D02*
Y850000D01*
X680000Y1565000D02*
X690000D01*
X685000Y1560000D02*
Y1570000D01*
X1945000Y2035000D02*
X1955000D01*
X1950000Y2030000D02*
Y2040000D01*
Y2705000D02*
X1960000D01*
X1955000Y2700000D02*
Y2710000D01*
X790000Y1535000D02*
X800000D01*
X795000Y1530000D02*
Y1540000D01*
X1765000Y765000D02*
X1775000D01*
X1770000Y760000D02*
Y770000D01*
X1545000Y765000D02*
X1555000D01*
X1550000Y760000D02*
Y770000D01*
X1590000Y95000D02*
X1600000D01*
X1595000Y90000D02*
Y100000D01*
X1055000Y765000D02*
X1065000D01*
X1060000Y760000D02*
Y770000D01*
X1600000Y1440000D02*
X1610000D01*
X1605000Y1435000D02*
Y1445000D01*
X1645000Y2160000D02*
X1655000D01*
X1650000Y2155000D02*
Y2165000D01*
X790000Y2180000D02*
X800000D01*
X795000Y2175000D02*
Y2185000D01*
X610000Y2265000D02*
X620000D01*
X615000Y2260000D02*
Y2270000D01*
X1263750Y2208750D02*
X1273750D01*
X1268750Y2203750D02*
Y2213750D01*
X1055000Y2180000D02*
X1065000D01*
X1060000Y2175000D02*
Y2185000D01*
X1120355Y2307105D02*
X1130355D01*
X1125355Y2302105D02*
Y2312105D01*
X1055000Y2305000D02*
X1065000D01*
X1060000Y2300000D02*
Y2310000D01*
X1085000Y2440000D02*
X1095000D01*
X1090000Y2435000D02*
Y2445000D01*
X595000Y1755000D02*
X605000D01*
X600000Y1750000D02*
Y1760000D01*
X1265000Y2695000D02*
X1275000D01*
X1270000Y2690000D02*
Y2700000D01*
X1235000Y2485000D02*
X1245000D01*
X1240000Y2480000D02*
Y2490000D01*
X510000Y2615000D02*
X520000D01*
X515000Y2610000D02*
Y2620000D01*
X260000Y2560000D02*
X270000D01*
X265000Y2555000D02*
Y2565000D01*
X320000Y2395000D02*
X330000D01*
X325000Y2390000D02*
Y2400000D01*
X200000Y1215000D02*
X210000D01*
X205000Y1210000D02*
Y1220000D01*
X110000Y1280000D02*
X120000D01*
X115000Y1275000D02*
Y1285000D01*
X280000Y1905000D02*
X290000D01*
X285000Y1900000D02*
Y1910000D01*
X870000Y1740000D02*
X880000D01*
X875000Y1735000D02*
Y1745000D01*
X855000Y1875000D02*
X865000D01*
X860000Y1870000D02*
Y1880000D01*
X870000Y1140000D02*
X880000D01*
X875000Y1135000D02*
Y1145000D01*
X990000Y1140000D02*
X1000000D01*
X995000Y1135000D02*
Y1145000D01*
X1000000Y1195000D02*
X1010000D01*
X1005000Y1190000D02*
Y1200000D01*
X940000Y1350000D02*
X950000D01*
X945000Y1345000D02*
Y1355000D01*
X330591Y1249409D02*
X340591D01*
X335591Y1244409D02*
Y1254409D01*
X330591Y1351772D02*
X340591D01*
X335591Y1346772D02*
Y1356772D01*
X449409Y1350591D02*
X459409D01*
X454409Y1345591D02*
Y1355591D01*
X525404Y1414597D02*
X535404D01*
X530404Y1409597D02*
Y1419597D01*
X603386Y1455000D02*
X613386D01*
X608386Y1450000D02*
Y1460000D01*
X552205Y1452795D02*
X562205D01*
X557205Y1447795D02*
Y1457795D01*
X577795Y1417795D02*
X587795D01*
X582795Y1412795D02*
Y1422795D01*
X280000Y830000D02*
X290000D01*
X285000Y825000D02*
Y835000D01*
X280000Y935000D02*
X290000D01*
X285000Y930000D02*
Y940000D01*
X280000Y1030000D02*
X290000D01*
X285000Y1025000D02*
Y1035000D01*
X280000Y1135000D02*
X290000D01*
X285000Y1130000D02*
Y1140000D01*
X455000Y1600000D02*
X465000D01*
X460000Y1595000D02*
Y1605000D01*
X530000Y1700000D02*
X540000D01*
X535000Y1695000D02*
Y1705000D01*
X552230Y1870713D02*
X562230D01*
X557230Y1865713D02*
Y1875713D01*
X584313Y1909062D02*
X594313D01*
X589313Y1904062D02*
Y1914062D01*
X705000Y1995000D02*
X715000D01*
X710000Y1990000D02*
Y2000000D01*
X625000Y1880000D02*
X635000D01*
X630000Y1875000D02*
Y1885000D01*
X705000Y1455000D02*
X715000D01*
X710000Y1450000D02*
Y1460000D01*
X855000D02*
X865000D01*
X860000Y1455000D02*
Y1465000D01*
X755000Y1350000D02*
X765000D01*
X760000Y1345000D02*
Y1355000D01*
X855000Y1250000D02*
X865000D01*
X860000Y1245000D02*
Y1255000D01*
X805000Y1350000D02*
X815000D01*
X810000Y1345000D02*
Y1355000D01*
X805000Y1125000D02*
X815000D01*
X810000Y1120000D02*
Y1130000D01*
X240000Y2054183D02*
X250000D01*
X245000Y2049183D02*
Y2059183D01*
X240000Y2369183D02*
X250000D01*
X245000Y2364183D02*
Y2374183D01*
X1290000Y1990000D02*
X1300000D01*
X1295000Y1985000D02*
Y1995000D01*
X1220000Y1990000D02*
X1230000D01*
X1225000Y1985000D02*
Y1995000D01*
X1291875Y2310000D02*
X1301875D01*
X1296875Y2305000D02*
Y2315000D01*
X1290000Y1435000D02*
X1300000D01*
X1295000Y1430000D02*
Y1440000D01*
X1291562Y1875000D02*
X1301562D01*
X1296562Y1870000D02*
Y1880000D01*
X1120000Y1875000D02*
X1130000D01*
X1125000Y1870000D02*
Y1880000D01*
X1110000Y1000000D02*
X1120000D01*
X1115000Y995000D02*
Y1005000D01*
X1290000Y1000000D02*
X1300000D01*
X1295000Y995000D02*
Y1005000D01*
X1456705Y2745000D02*
X1466705D01*
X1461705Y2740000D02*
Y2750000D01*
X1456705Y2308750D02*
X1466705D01*
X1461705Y2303750D02*
Y2313750D01*
X1456705Y1873100D02*
X1466705D01*
X1461705Y1868100D02*
Y1878100D01*
X1456705Y1436250D02*
X1466705D01*
X1461705Y1431250D02*
Y1441250D01*
X1460000Y1000000D02*
X1470000D01*
X1465000Y995000D02*
Y1005000D01*
X1319527Y2160000D02*
X1329527D01*
X1324527Y2155000D02*
Y2165000D01*
X1319527Y1725000D02*
X1329527D01*
X1324527Y1720000D02*
Y1730000D01*
X1319527Y1285000D02*
X1329527D01*
X1324527Y1280000D02*
Y1290000D01*
X1319527Y850000D02*
X1329527D01*
X1324527Y845000D02*
Y855000D01*
X1335000Y1066900D02*
X1345000D01*
X1340000Y1061900D02*
Y1071900D01*
X1335000Y1505000D02*
X1345000D01*
X1340000Y1500000D02*
Y1510000D01*
X1335000Y1940000D02*
X1345000D01*
X1340000Y1935000D02*
Y1945000D01*
X1335000Y2380000D02*
X1345000D01*
X1340000Y2375000D02*
Y2385000D01*
X1335000Y2815000D02*
X1345000D01*
X1340000Y2810000D02*
Y2820000D01*
%TF.MD5,c6bb07b45f77e8e15e8e0e230cbd6bcb*%
M02*
