%TF.GenerationSoftware,Altium Limited,Altium Designer,20.1.12 (249)*%
G04 Layer_Physical_Order=1*
G04 Layer_Color=255*
%FSLAX26Y26*%
%MOIN*%
%TF.SameCoordinates,D7814EA1-E16B-4454-910B-2193EC0156EE*%
%TF.FilePolarity,Positive*%
%TF.FileFunction,Copper,L1,Top,Signal*%
%TF.Part,Single*%
G01*
G75*
%TA.AperFunction,SMDPad,CuDef*%
G04:AMPARAMS|DCode=10|XSize=21.654mil|YSize=49.213mil|CornerRadius=1.949mil|HoleSize=0mil|Usage=FLASHONLY|Rotation=0.000|XOffset=0mil|YOffset=0mil|HoleType=Round|Shape=RoundedRectangle|*
%AMROUNDEDRECTD10*
21,1,0.021654,0.045315,0,0,0.0*
21,1,0.017756,0.049213,0,0,0.0*
1,1,0.003898,0.008878,-0.022657*
1,1,0.003898,-0.008878,-0.022657*
1,1,0.003898,-0.008878,0.022657*
1,1,0.003898,0.008878,0.022657*
%
%ADD10ROUNDEDRECTD10*%
%ADD11R,0.066929X0.045276*%
%ADD12R,0.031496X0.037402*%
%ADD13R,0.055118X0.059055*%
%ADD14R,0.109843X0.029134*%
%ADD15R,0.033465X0.029528*%
G04:AMPARAMS|DCode=16|XSize=74.803mil|YSize=94.488mil|CornerRadius=0mil|HoleSize=0mil|Usage=FLASHONLY|Rotation=315.000|XOffset=0mil|YOffset=0mil|HoleType=Round|Shape=Rectangle|*
%AMROTATEDRECTD16*
4,1,4,-0.059853,-0.006960,0.006960,0.059853,0.059853,0.006960,-0.006960,-0.059853,-0.059853,-0.006960,0.0*
%
%ADD16ROTATEDRECTD16*%

%ADD17R,0.057087X0.051181*%
G04:AMPARAMS|DCode=18|XSize=64.961mil|YSize=43.307mil|CornerRadius=0mil|HoleSize=0mil|Usage=FLASHONLY|Rotation=45.000|XOffset=0mil|YOffset=0mil|HoleType=Round|Shape=Rectangle|*
%AMROTATEDRECTD18*
4,1,4,-0.007656,-0.038278,-0.038278,-0.007656,0.007656,0.038278,0.038278,0.007656,-0.007656,-0.038278,0.0*
%
%ADD18ROTATEDRECTD18*%

G04:AMPARAMS|DCode=19|XSize=9.842mil|YSize=61.024mil|CornerRadius=0mil|HoleSize=0mil|Usage=FLASHONLY|Rotation=135.000|XOffset=0mil|YOffset=0mil|HoleType=Round|Shape=Round|*
%AMOVALD19*
21,1,0.051181,0.009842,0.000000,0.000000,225.0*
1,1,0.009842,0.018095,0.018095*
1,1,0.009842,-0.018095,-0.018095*
%
%ADD19OVALD19*%

G04:AMPARAMS|DCode=20|XSize=9.842mil|YSize=61.024mil|CornerRadius=0mil|HoleSize=0mil|Usage=FLASHONLY|Rotation=45.000|XOffset=0mil|YOffset=0mil|HoleType=Round|Shape=Round|*
%AMOVALD20*
21,1,0.051181,0.009842,0.000000,0.000000,135.0*
1,1,0.009842,0.018095,-0.018095*
1,1,0.009842,-0.018095,0.018095*
%
%ADD20OVALD20*%

%ADD21R,0.017716X0.033465*%
%ADD22R,0.074803X0.059055*%
%ADD23R,0.039370X0.098425*%
%ADD24R,0.059055X0.074803*%
%ADD25O,0.086614X0.023622*%
%ADD26R,0.051181X0.070866*%
%ADD27O,0.017716X0.059055*%
%ADD28R,0.033465X0.017716*%
%ADD29R,0.021654X0.070866*%
%TA.AperFunction,Conductor*%
%ADD30C,0.020000*%
%ADD31C,0.010000*%
%ADD32C,0.008000*%
%ADD33C,0.018000*%
%TA.AperFunction,ViaPad*%
%ADD34C,0.157480*%
%TA.AperFunction,ComponentPad*%
%ADD35C,0.059055*%
%ADD36R,0.059055X0.059055*%
%ADD37C,0.080000*%
%ADD38C,0.066142*%
%TA.AperFunction,ViaPad*%
%ADD39C,0.020000*%
G36*
X613386Y1161373D02*
X615744Y1161842D01*
X621982Y1166010D01*
X623116Y1167708D01*
X625000Y1167137D01*
Y1160000D01*
X685000Y1100000D01*
Y926181D01*
X671890D01*
Y886654D01*
Y847126D01*
X685000D01*
Y760000D01*
X440000D01*
X440000Y1140000D01*
X443150D01*
Y1140000D01*
X463976D01*
X484803D01*
Y1140000D01*
X545000Y1140000D01*
Y1162993D01*
X546736Y1163921D01*
X549847Y1161842D01*
X552205Y1161373D01*
Y1200276D01*
X562205D01*
Y1161373D01*
X564563Y1161842D01*
X570000Y1165475D01*
X575437Y1161842D01*
X577795Y1161373D01*
Y1200276D01*
X587795D01*
Y1161373D01*
X590153Y1161842D01*
X595591Y1165475D01*
X601028Y1161842D01*
X603386Y1161373D01*
Y1200276D01*
X613386D01*
Y1161373D01*
D02*
G37*
%LPC*%
G36*
X484803Y1130000D02*
X468976D01*
Y1089567D01*
X484803D01*
Y1130000D01*
D02*
G37*
G36*
X458976D02*
X443150D01*
Y1089567D01*
X458976D01*
Y1130000D01*
D02*
G37*
G36*
X484803Y1078766D02*
X468976D01*
Y1038333D01*
X484803D01*
Y1078766D01*
D02*
G37*
G36*
X458976D02*
X443150D01*
Y1038333D01*
X458976D01*
Y1078766D01*
D02*
G37*
G36*
X484803Y1028333D02*
X468976D01*
Y987900D01*
X484803D01*
Y1028333D01*
D02*
G37*
G36*
X458976D02*
X443150D01*
Y987900D01*
X458976D01*
Y1028333D01*
D02*
G37*
G36*
X484803Y977100D02*
X468976D01*
Y936667D01*
X484803D01*
Y977100D01*
D02*
G37*
G36*
X458976D02*
X443150D01*
Y936667D01*
X458976D01*
Y977100D01*
D02*
G37*
G36*
X661890Y926181D02*
X627362D01*
Y891654D01*
X661890D01*
Y926181D01*
D02*
G37*
G36*
X484803Y926667D02*
X468976D01*
Y886234D01*
X484803D01*
Y926667D01*
D02*
G37*
G36*
X458976D02*
X443150D01*
Y886234D01*
X458976D01*
Y926667D01*
D02*
G37*
G36*
X661890Y881654D02*
X627362D01*
Y847126D01*
X661890D01*
Y881654D01*
D02*
G37*
G36*
X484803Y875433D02*
X468976D01*
Y835000D01*
X484803D01*
Y875433D01*
D02*
G37*
G36*
X458976D02*
X443150D01*
Y835000D01*
X458976D01*
Y875433D01*
D02*
G37*
G36*
X484803Y825000D02*
X468976D01*
Y784567D01*
X484803D01*
Y825000D01*
D02*
G37*
G36*
X458976D02*
X443150D01*
Y784567D01*
X458976D01*
Y825000D01*
D02*
G37*
%LPD*%
D10*
X860000Y1403347D02*
D03*
X810000D02*
D03*
X760000D02*
D03*
X710000D02*
D03*
X860000Y1196654D02*
D03*
X810000D02*
D03*
X760000D02*
D03*
X710000D02*
D03*
D11*
X945000Y1193819D02*
D03*
Y1296181D02*
D03*
X395000Y1248819D02*
D03*
Y1351181D02*
D03*
D12*
X1179606Y765000D02*
D03*
X1130394D02*
D03*
X1547431Y2470000D02*
D03*
X1498218D02*
D03*
X1699606Y2115000D02*
D03*
X1650394D02*
D03*
X1719606Y1440000D02*
D03*
X1670394D02*
D03*
X1694606Y95000D02*
D03*
X1645394D02*
D03*
D13*
X1835945Y2790000D02*
D03*
X1954055D02*
D03*
X1835945Y2116596D02*
D03*
X1954055D02*
D03*
X1835945Y1443192D02*
D03*
X1954055D02*
D03*
X1835945Y769788D02*
D03*
X1954055D02*
D03*
X1835945Y96385D02*
D03*
X1954055D02*
D03*
X334055Y2610000D02*
D03*
X215945D02*
D03*
X334055Y2505000D02*
D03*
X215945D02*
D03*
D14*
X244882Y2309183D02*
D03*
Y2259183D02*
D03*
Y2209183D02*
D03*
Y2109183D02*
D03*
X405118Y2309183D02*
D03*
Y2259183D02*
D03*
Y2209183D02*
D03*
Y2159183D02*
D03*
Y2109183D02*
D03*
D15*
X127313Y1878819D02*
D03*
Y1930000D02*
D03*
X127313Y1754409D02*
D03*
Y1805591D02*
D03*
D16*
X257930Y1613565D02*
D03*
X372070Y1499426D02*
D03*
D17*
X114281Y1388921D02*
D03*
Y1325929D02*
D03*
X205000Y1328921D02*
D03*
Y1265929D02*
D03*
D18*
X191858Y1509670D02*
D03*
X271199Y1430330D02*
D03*
D19*
X391392Y1754033D02*
D03*
X405311Y1740113D02*
D03*
X419231Y1726194D02*
D03*
X433150Y1712275D02*
D03*
X447069Y1698355D02*
D03*
X460989Y1684436D02*
D03*
X474908Y1670516D02*
D03*
X488828Y1656597D02*
D03*
X502747Y1642678D02*
D03*
X516667Y1628758D02*
D03*
X530586Y1614839D02*
D03*
X544505Y1600919D02*
D03*
X768608Y1825022D02*
D03*
X754689Y1838941D02*
D03*
X740769Y1852861D02*
D03*
X726850Y1866780D02*
D03*
X712930Y1880700D02*
D03*
X699011Y1894619D02*
D03*
X685092Y1908539D02*
D03*
X671172Y1922458D02*
D03*
X657253Y1936377D02*
D03*
X643333Y1950297D02*
D03*
X629414Y1964216D02*
D03*
X615495Y1978136D02*
D03*
D20*
Y1600919D02*
D03*
X629414Y1614839D02*
D03*
X643333Y1628758D02*
D03*
X657253Y1642678D02*
D03*
X671172Y1656597D02*
D03*
X685092Y1670516D02*
D03*
X699011Y1684436D02*
D03*
X712930Y1698355D02*
D03*
X726850Y1712275D02*
D03*
X740769Y1726194D02*
D03*
X754689Y1740113D02*
D03*
X768608Y1754033D02*
D03*
X544505Y1978136D02*
D03*
X530586Y1964216D02*
D03*
X516667Y1950297D02*
D03*
X502747Y1936378D02*
D03*
X488828Y1922458D02*
D03*
X474908Y1908539D02*
D03*
X460989Y1894619D02*
D03*
X447069Y1880700D02*
D03*
X433150Y1866780D02*
D03*
X419231Y1852861D02*
D03*
X405311Y1838941D02*
D03*
X391392Y1825022D02*
D03*
D21*
X1434528Y1505000D02*
D03*
X1375473D02*
D03*
Y1940000D02*
D03*
X1434528D02*
D03*
Y1066900D02*
D03*
X1375473D02*
D03*
X1434528Y2815000D02*
D03*
X1375473D02*
D03*
Y2380000D02*
D03*
X1434528D02*
D03*
D22*
X220000Y1904055D02*
D03*
Y1785945D02*
D03*
X950000Y1760945D02*
D03*
Y1879055D02*
D03*
D23*
X795000Y2261152D02*
D03*
Y2406821D02*
D03*
X695000Y2261152D02*
D03*
Y2406821D02*
D03*
X895000D02*
D03*
X995000D02*
D03*
X895000Y2261152D02*
D03*
X995000D02*
D03*
D24*
X875945Y1080000D02*
D03*
X994055D02*
D03*
X575945Y2131821D02*
D03*
X694055D02*
D03*
D25*
X1394488Y1286250D02*
D03*
Y1336250D02*
D03*
Y1386250D02*
D03*
Y1436250D02*
D03*
X1205512Y1286250D02*
D03*
Y1336250D02*
D03*
Y1386250D02*
D03*
Y1436250D02*
D03*
Y1872500D02*
D03*
Y1822500D02*
D03*
Y1772500D02*
D03*
Y1722500D02*
D03*
X1394488Y1872500D02*
D03*
Y1822500D02*
D03*
Y1772500D02*
D03*
Y1722500D02*
D03*
Y850000D02*
D03*
Y900000D02*
D03*
Y950000D02*
D03*
Y1000000D02*
D03*
X1205512Y850000D02*
D03*
Y900000D02*
D03*
Y950000D02*
D03*
Y1000000D02*
D03*
X1394488Y2595000D02*
D03*
Y2645000D02*
D03*
Y2695000D02*
D03*
Y2745000D02*
D03*
X1205512Y2595000D02*
D03*
Y2645000D02*
D03*
Y2695000D02*
D03*
Y2745000D02*
D03*
Y2308750D02*
D03*
Y2258750D02*
D03*
Y2208750D02*
D03*
Y2158750D02*
D03*
X1394488Y2308750D02*
D03*
Y2258750D02*
D03*
Y2208750D02*
D03*
Y2158750D02*
D03*
D26*
X561024Y2490000D02*
D03*
X438976D02*
D03*
X561024Y2615000D02*
D03*
X438976D02*
D03*
D27*
X608386Y1359724D02*
D03*
X582795D02*
D03*
X557205D02*
D03*
X531614D02*
D03*
X608386Y1200276D02*
D03*
X582795D02*
D03*
X557205D02*
D03*
X531614D02*
D03*
D28*
X469439Y1240473D02*
D03*
Y1299528D02*
D03*
D29*
X463976Y931667D02*
D03*
X336024D02*
D03*
X463976Y1033333D02*
D03*
X336024D02*
D03*
X463976Y830000D02*
D03*
X336024D02*
D03*
X463976Y1135000D02*
D03*
X336024D02*
D03*
D30*
X813819Y1296181D02*
X945000D01*
X760000Y1350000D02*
X813819Y1296181D01*
X220945Y1905000D02*
X285000D01*
X515000Y2615000D02*
X561024D01*
Y2490000D02*
Y2615000D01*
X936654Y1747598D02*
X950000Y1760945D01*
X882598Y1747598D02*
X936654D01*
X875000Y1740000D02*
X882598Y1747598D01*
X860000Y1875000D02*
X945945D01*
X950000Y1879055D01*
X875945Y1080000D02*
Y1139055D01*
X875000Y1140000D02*
X875945Y1139055D01*
X994055Y1080000D02*
X995000Y1080945D01*
Y1140000D01*
X945000Y1193819D02*
X946181Y1195000D01*
X1005000D01*
X945000Y1296181D02*
Y1350000D01*
X336181Y1351181D02*
X453819D01*
X335591Y1249409D02*
X336181Y1248819D01*
X395000D01*
X335591Y1351772D02*
X336181Y1351181D01*
X453819D02*
X454409Y1350591D01*
X285000Y830000D02*
X336024D01*
X285000Y830000D02*
X285000Y830000D01*
Y935000D02*
X336024D01*
X285000Y935000D02*
X285000Y935000D01*
Y1030000D02*
X336024D01*
X285000Y1030000D02*
X285000Y1030000D01*
X285000Y1135000D02*
X285000Y1135000D01*
X336024D01*
Y1033333D02*
Y1135000D01*
Y931667D02*
Y1033333D01*
Y830000D02*
Y931667D01*
D31*
X860000Y1196654D02*
X942165D01*
X945000Y1193819D01*
X405118Y2309183D02*
X405526Y2309592D01*
X499592D01*
X500000Y2310000D01*
X514698Y1870000D02*
X515000D01*
X512349Y1872349D02*
X514698Y1870000D01*
X535288Y1849713D02*
X565928D01*
X515000Y1870000D02*
X535288Y1849713D01*
X610313Y1894097D02*
Y1917277D01*
X643333Y1950297D01*
X565928Y1849713D02*
X610313Y1894097D01*
X575000Y2130876D02*
X575945Y2131821D01*
X575000Y2065000D02*
Y2130876D01*
X615495Y1978136D02*
X629999Y1992640D01*
Y1992751D01*
X575000Y2047749D02*
X629999Y1992751D01*
X575000Y2047749D02*
Y2065000D01*
X694055Y2131821D02*
X695000Y2130876D01*
Y2065000D02*
Y2130876D01*
Y2029802D02*
Y2065000D01*
X629414Y1964216D02*
X695000Y2029802D01*
X768608Y1754033D02*
Y1754033D01*
X860000Y1845425D01*
Y1875000D01*
X784802Y1710000D02*
X845000D01*
X875000Y1740000D01*
X754689Y1740113D02*
X754689D01*
X784802Y1710000D01*
X220000Y1785945D02*
X220945Y1785000D01*
X391392Y1825022D02*
X391392D01*
X351370Y1785000D02*
X391392Y1825022D01*
X220945Y1785000D02*
X351370D01*
X339253Y1905000D02*
X405311Y1838941D01*
X285000Y1905000D02*
X339253D01*
X431407Y1795961D02*
X436620D01*
X434707Y1794048D02*
X436620Y1795961D01*
X420453D02*
X436620D01*
X391392Y1825022D02*
X420453Y1795961D01*
X431407Y1794048D02*
X434707D01*
X391392Y1754033D02*
X431407Y1794048D01*
X600000Y1644253D02*
X629414Y1614839D01*
X600000Y1644253D02*
Y1755000D01*
X556000Y1640253D02*
Y1759000D01*
X530586Y1614839D02*
X556000Y1640253D01*
X555000Y1760000D02*
X556000Y1759000D01*
X760000Y960000D02*
Y1196654D01*
X824370Y886654D02*
Y895630D01*
X760000Y960000D02*
X824370Y895630D01*
X1500000Y2471782D02*
Y2520000D01*
X1498218Y2470000D02*
X1500000Y2471782D01*
X776963Y1690000D02*
X1000000D01*
X740769Y1726194D02*
X776963Y1690000D01*
X1831156Y765000D02*
X1835945Y769788D01*
X1770000Y765000D02*
X1831156D01*
X1179606D02*
X1550000D01*
X1694606Y95000D02*
X1834560D01*
X1835945Y96385D01*
X1595000Y95000D02*
X1645394D01*
X1060000Y765000D02*
X1130394D01*
X1605000Y1440000D02*
X1670394D01*
X1719606D02*
X1832753D01*
X1835945Y1443192D01*
X1699606Y2115000D02*
X1834349D01*
X1835945Y2116596D01*
X1650000Y2115394D02*
X1650394Y2115000D01*
X1650000Y2115394D02*
Y2160000D01*
X995000Y2406821D02*
X1056821D01*
X895000D02*
X995000D01*
X795000D02*
X895000D01*
X695000D02*
X795000D01*
X1056821D02*
X1090000Y2440000D01*
X220000Y1904055D02*
X220945Y1905000D01*
X128494Y1880000D02*
X195945D01*
X127313Y1878819D02*
X128494Y1880000D01*
X195945D02*
X220000Y1904055D01*
X127313Y1930000D02*
X167313Y1970000D01*
X629414Y1614839D02*
Y1614839D01*
X334055Y2505000D02*
X423976D01*
X438976Y2490000D01*
X334055Y2610000D02*
X433976D01*
X438976Y2615000D01*
X1132500Y1822500D02*
X1205512D01*
X1000000Y1690000D02*
X1132500Y1822500D01*
X215945Y2608032D02*
Y2610000D01*
Y2608032D02*
X263976Y2560000D01*
X265000D01*
X215945Y2503032D02*
Y2505000D01*
Y2503032D02*
X323976Y2395000D01*
X325000D01*
X167313Y1970000D02*
X357769D01*
X397043Y1930726D02*
Y1930726D01*
X357769Y1970000D02*
X397043Y1930726D01*
Y1930726D02*
X447069Y1880700D01*
X205000Y1215000D02*
Y1265929D01*
X114281Y1325929D02*
X115000Y1325210D01*
Y1280000D02*
Y1325210D01*
X205000Y1328921D02*
Y1364131D01*
X271199Y1430330D01*
X114281Y1388921D02*
Y1432094D01*
X191858Y1509670D01*
Y1509670D01*
X340294Y1499426D02*
X372070D01*
X271199Y1430330D02*
X340294Y1499426D01*
X257930Y1575743D02*
Y1613565D01*
X191858Y1509670D02*
X257930Y1575743D01*
X530404Y1414597D02*
X531009Y1413991D01*
Y1360330D02*
Y1413991D01*
Y1360330D02*
X531614Y1359724D01*
X557205D02*
Y1452795D01*
X608386Y1359724D02*
Y1455000D01*
X582795Y1359724D02*
Y1417795D01*
X484724Y1200276D02*
X531614D01*
X469439Y1215561D02*
X484724Y1200276D01*
X469439Y1215561D02*
Y1240473D01*
X544528Y1299528D02*
X557205Y1312205D01*
Y1359724D01*
X469439Y1299528D02*
X544528D01*
X768608Y1754033D02*
X768765Y1753876D01*
X768876D01*
X502712Y1642678D02*
X502747D01*
X460035Y1600000D02*
X502712Y1642678D01*
X460000Y1600000D02*
X460035D01*
X488828Y1656597D02*
X488939D01*
X532342Y1700000D01*
X535000D01*
X405311Y1838941D02*
Y1839053D01*
X557230Y1919871D02*
X615495Y1978136D01*
X557230Y1870713D02*
Y1919871D01*
X591227Y1926029D02*
X629414Y1964216D01*
X591227Y1910975D02*
Y1926029D01*
X589313Y1909062D02*
X591227Y1910975D01*
X760000Y1350000D02*
Y1403347D01*
X860000Y1196654D02*
Y1250000D01*
X810000Y1350000D02*
Y1403347D01*
Y1125000D02*
Y1196654D01*
X372070Y1499426D02*
Y1502071D01*
X329490Y1552937D02*
X460989Y1684436D01*
X329490Y1544651D02*
X372070Y1502071D01*
X329490Y1544651D02*
Y1552937D01*
X257930Y1613565D02*
X261435D01*
X305000Y1570000D01*
X318714D01*
X447069Y1698355D01*
X244882Y2259183D02*
X245000Y2259065D01*
X244882Y2369065D02*
X245000Y2369183D01*
X244882Y2309183D02*
Y2369065D01*
X245000Y2054183D02*
Y2259065D01*
D32*
X1325000Y2595000D02*
Y2798887D01*
X1340000Y2813887D01*
Y2815000D01*
X1325000Y2595000D02*
X1394488D01*
X1340000Y2175640D02*
Y2380000D01*
X1324527Y2160168D02*
X1340000Y2175640D01*
X1324527Y2160000D02*
Y2160168D01*
X1340000Y1740640D02*
Y1940000D01*
X1324527Y1725168D02*
X1340000Y1740640D01*
X1324527Y1725000D02*
Y1725168D01*
X1340000Y1300640D02*
Y1505000D01*
X1324527Y1285168D02*
X1340000Y1300640D01*
X1324527Y1285000D02*
Y1285168D01*
X1340000Y865640D02*
Y1066900D01*
X1324527Y850168D02*
X1340000Y865640D01*
X1324527Y850000D02*
Y850168D01*
X655000Y1385000D02*
Y1385686D01*
X665000Y1395686D01*
Y1606593D01*
X643333Y1628259D02*
Y1628758D01*
Y1628259D02*
X665000Y1606593D01*
X685092Y1670516D02*
X760000Y1595608D01*
Y1480000D02*
Y1595608D01*
X699011Y1684436D02*
X795000Y1588447D01*
X148691Y1735000D02*
X315000D01*
X129281Y1754409D02*
X148691Y1735000D01*
X474908Y1670516D02*
X500000Y1695608D01*
X490000Y1759314D02*
X500000Y1749314D01*
Y1695608D02*
Y1749314D01*
X490000Y1759314D02*
Y1760000D01*
X575000Y1795000D02*
X605000Y1825000D01*
X539895Y1596309D02*
X575000Y1631414D01*
Y1795000D01*
X905747Y1990000D02*
X1225000D01*
X754689Y1838941D02*
X905747Y1990000D01*
X539895Y1596309D02*
Y1596309D01*
X1119427Y1436250D02*
X1205512D01*
X1954055Y1443192D02*
X1955000Y1442247D01*
Y1380000D02*
Y1442247D01*
X730000Y1530000D02*
Y1597769D01*
X671172Y1656597D02*
X730000Y1597769D01*
X795000Y1535000D02*
Y1588447D01*
X712930Y1698355D02*
X1080000Y1331286D01*
X726850Y1712275D02*
X1054125Y1385000D01*
X1205512D01*
X1080000Y954686D02*
Y1331286D01*
X1954055Y96385D02*
X1955440Y95000D01*
X2025000D01*
X1950000Y773844D02*
X1954055Y769788D01*
X1950000Y773844D02*
Y845000D01*
X685000Y1565000D02*
Y1614432D01*
X657253Y1642179D02*
X685000Y1614432D01*
X657253Y1642179D02*
Y1642678D01*
X1950000Y2112541D02*
X1954055Y2116596D01*
X1950000Y2035000D02*
Y2112541D01*
X1955000Y2705000D02*
Y2789055D01*
X1954055Y2790000D02*
X1955000Y2789055D01*
X795000Y2180000D02*
Y2261152D01*
X691152Y2265000D02*
X695000Y2261152D01*
X615000Y2265000D02*
X691152D01*
X895000Y2261152D02*
X910685Y2245467D01*
X945000Y2180000D02*
X1060000D01*
X910685Y2214315D02*
Y2245467D01*
Y2214315D02*
X945000Y2180000D01*
X1270000Y2015000D02*
Y2210000D01*
X995000Y2261152D02*
Y2284315D01*
X1010685Y2300000D01*
X1051753D01*
X1056753Y2305000D01*
X1060000D01*
X1127000Y2308750D02*
X1205512D01*
X1125355Y2307105D02*
X1127000Y2308750D01*
X127313Y1754409D02*
X129281D01*
X127313Y1805591D02*
X200354D01*
X220000Y1785945D01*
X831553Y2055000D02*
X1075000D01*
X1095000Y2075000D02*
Y2325000D01*
X1075000Y2055000D02*
X1095000Y2075000D01*
X685092Y1908539D02*
X831553Y2055000D01*
X1095000Y2325000D02*
X1239944Y2469944D01*
Y2484944D02*
X1240000Y2485000D01*
X1239944Y2469944D02*
Y2484944D01*
X1205512Y2695000D02*
X1270000D01*
X839392Y2035000D02*
X1090000D01*
X1115000Y2060000D02*
Y2245000D01*
X1090000Y2035000D02*
X1115000Y2060000D01*
X1128750Y2258750D02*
X1205512D01*
X1115000Y2245000D02*
X1128750Y2258750D01*
X699011Y1894619D02*
X839392Y2035000D01*
X467353Y2256883D02*
X505000Y2219236D01*
Y2017641D02*
Y2219236D01*
X405118Y2259183D02*
X407418Y2256883D01*
X467353D01*
X505000Y2017641D02*
X544505Y1978136D01*
X1084686Y950000D02*
X1205512D01*
X1080000Y954686D02*
X1084686Y950000D01*
X1394488Y2748100D02*
X1397784D01*
X1394488Y2313100D02*
X1397784D01*
X1394488Y1873100D02*
X1397784D01*
X1394488Y1438100D02*
X1397784D01*
Y1873100D02*
X1461705D01*
X405118Y2209183D02*
X475314D01*
X486606Y1980357D02*
X516667Y1950297D01*
X486606Y1980357D02*
Y2197891D01*
X475314Y2209183D02*
X486606Y2197891D01*
X707704Y1992704D02*
X710000Y1995000D01*
X707704Y1986829D02*
Y1992704D01*
X657253Y1936377D02*
X707704Y1986829D01*
X671172Y1921959D02*
Y1922458D01*
X630000Y1880787D02*
X671172Y1921959D01*
X630000Y1880000D02*
Y1880787D01*
X710000Y1403347D02*
Y1455000D01*
X860000Y1403347D02*
Y1460000D01*
X1295000Y1990000D02*
Y2310000D01*
Y1875000D02*
Y1990000D01*
X1270000Y1770000D02*
Y2015000D01*
X740769Y1852861D02*
X902908Y2015000D01*
X1270000D01*
Y1335000D02*
Y1770000D01*
Y932992D02*
Y1335000D01*
X1205512Y1336250D02*
X1268750D01*
X1270000Y1335000D01*
X1205512Y2208750D02*
X1268750D01*
X1270000Y2210000D01*
X1205512Y1772500D02*
X1267500D01*
X1270000Y1770000D01*
Y2210000D02*
Y2640314D01*
X1295000Y2310000D02*
X1296875D01*
X1295000Y1875000D02*
X1296562D01*
X1295000Y1435000D02*
Y1875000D01*
Y1000000D02*
Y1435000D01*
X1204262Y1873750D02*
X1205512Y1872500D01*
X1126250Y1873750D02*
X1204262D01*
X1125000Y1875000D02*
X1126250Y1873750D01*
X1295000Y2310000D02*
Y2740000D01*
X1237008Y900000D02*
X1270000Y932992D01*
X1205512Y2645000D02*
X1265314D01*
X1270000Y2640314D01*
X1205512Y900000D02*
X1237008D01*
X1115000Y1000000D02*
X1205512D01*
Y2745000D02*
X1290000D01*
X1295000Y2740000D01*
X1394488Y2745000D02*
X1461705D01*
X1394488Y2308750D02*
X1461705D01*
X1394488Y1436250D02*
X1461705D01*
X1394488Y1000000D02*
X1397784D01*
X1465000D01*
X1324527Y2160000D02*
X1360000D01*
X1324527Y1725000D02*
X1360000D01*
X1324527Y1285000D02*
X1360000D01*
X1324527Y850000D02*
X1360000D01*
X1340000Y1066900D02*
X1375473D01*
X1340000Y1505000D02*
X1375473D01*
X1340000Y1940000D02*
X1375473D01*
X1340000Y2380000D02*
X1375473D01*
X1340000Y2815000D02*
X1375473D01*
X1405000Y2808100D02*
X1411900Y2815000D01*
X1434528D01*
X1405000Y2755317D02*
Y2808100D01*
X1397784Y2748100D02*
X1405000Y2755317D01*
Y2373100D02*
X1411900Y2380000D01*
X1434528D01*
X1405000Y2320317D02*
Y2373100D01*
X1397784Y2313100D02*
X1405000Y2320317D01*
Y1933100D02*
X1411900Y1940000D01*
X1434528D01*
X1405000Y1880317D02*
Y1933100D01*
X1397784Y1873100D02*
X1405000Y1880317D01*
Y1498100D02*
X1411900Y1505000D01*
X1434528D01*
X1405000Y1445317D02*
Y1498100D01*
X1397784Y1438100D02*
X1405000Y1445317D01*
X1397784Y1000000D02*
X1405000Y1007216D01*
Y1060000D01*
X1411900Y1066900D02*
X1434528D01*
X1405000Y1060000D02*
X1411900Y1066900D01*
D33*
X1394488Y2258750D02*
X1473750D01*
X1788137Y2573137D01*
Y2602910D01*
X1800000Y2614774D01*
X1715000Y360000D02*
Y669456D01*
X1800000Y275000D02*
Y275000D01*
X1715000Y360000D02*
X1800000Y275000D01*
X1623750Y2303750D02*
X1800000D01*
X1394488Y2208750D02*
X1528750D01*
X1623750Y2303750D01*
X1720000Y3211024D02*
X1800000Y3291024D01*
X1720000Y2925000D02*
Y3211024D01*
X1490000Y2695000D02*
X1720000Y2925000D01*
X1715000Y2790000D02*
X1835945D01*
X1700000Y2775000D02*
X1715000Y2790000D01*
X1700000Y2625522D02*
Y2775000D01*
X1547431Y2470000D02*
Y2472953D01*
X1700000Y2625522D01*
X1675000Y2840000D02*
Y2840000D01*
X1800000Y2965000D02*
Y2980000D01*
X1675000Y2840000D02*
X1800000Y2965000D01*
X1480000Y2645000D02*
X1675000Y2840000D01*
X1394488Y2645000D02*
X1480000D01*
X1394488Y2695000D02*
X1490000D01*
X1598750Y1336250D02*
X1794999Y1140001D01*
Y956251D02*
Y1140001D01*
X1394488Y1336250D02*
X1598750D01*
X1484456Y900000D02*
X1715000Y669456D01*
X1394488Y900000D02*
X1484456D01*
X1395564Y948924D02*
X1526076D01*
X1800000Y586024D02*
Y675000D01*
X1526076Y948924D02*
X1800000Y675000D01*
X1394488Y950000D02*
X1395564Y948924D01*
X1794999Y956251D02*
X1800000Y951250D01*
X1394488Y1386250D02*
X1676024D01*
X1800000Y1262274D01*
X1394488Y1822500D02*
X1662500D01*
X1783223Y1938524D02*
X1800000D01*
X1764585Y1919886D02*
X1783223Y1938524D01*
X1759886Y1919886D02*
X1764585D01*
X1662500Y1822500D02*
X1759886Y1919886D01*
X1394488Y1772500D02*
X1655000D01*
X1800000Y1627500D01*
D34*
X1080000Y1590000D02*
D03*
X120000Y795000D02*
D03*
Y2820000D02*
D03*
D35*
X824370Y886654D02*
D03*
X745630D02*
D03*
X903110D02*
D03*
D36*
X666890D02*
D03*
D37*
X1800000Y1262274D02*
D03*
Y951250D02*
D03*
Y1938524D02*
D03*
Y1627500D02*
D03*
Y2614774D02*
D03*
Y2303750D02*
D03*
Y3291024D02*
D03*
Y2980000D02*
D03*
Y586024D02*
D03*
Y275000D02*
D03*
D38*
X745000Y2582018D02*
D03*
X945000D02*
D03*
D39*
X500000Y2310000D02*
D03*
X512349Y1872349D02*
D03*
X575000Y2065000D02*
D03*
X695000D02*
D03*
X1325000Y2595000D02*
D03*
X655000Y1385000D02*
D03*
X436620Y1795961D02*
D03*
X315000Y1735000D02*
D03*
X490000Y1760000D02*
D03*
X555000D02*
D03*
X1119427Y1436250D02*
D03*
X1500000Y2520000D02*
D03*
X1955000Y1380000D02*
D03*
X730000Y1530000D02*
D03*
X760000Y1480000D02*
D03*
X605000Y1825000D02*
D03*
X2025000Y95000D02*
D03*
X1950000Y845000D02*
D03*
X685000Y1565000D02*
D03*
X1950000Y2035000D02*
D03*
X1955000Y2705000D02*
D03*
X795000Y1535000D02*
D03*
X1770000Y765000D02*
D03*
X1550000D02*
D03*
X1595000Y95000D02*
D03*
X1060000Y765000D02*
D03*
X1605000Y1440000D02*
D03*
X1650000Y2160000D02*
D03*
X795000Y2180000D02*
D03*
X615000Y2265000D02*
D03*
X1268750Y2208750D02*
D03*
X1060000Y2180000D02*
D03*
X1125355Y2307105D02*
D03*
X1060000Y2305000D02*
D03*
X1090000Y2440000D02*
D03*
X600000Y1755000D02*
D03*
X1270000Y2695000D02*
D03*
X1240000Y2485000D02*
D03*
X515000Y2615000D02*
D03*
X265000Y2560000D02*
D03*
X325000Y2395000D02*
D03*
X205000Y1215000D02*
D03*
X115000Y1280000D02*
D03*
X285000Y1905000D02*
D03*
X875000Y1740000D02*
D03*
X860000Y1875000D02*
D03*
X875000Y1140000D02*
D03*
X995000D02*
D03*
X1005000Y1195000D02*
D03*
X945000Y1350000D02*
D03*
X335591Y1249409D02*
D03*
Y1351772D02*
D03*
X454409Y1350591D02*
D03*
X530404Y1414597D02*
D03*
X608386Y1455000D02*
D03*
X557205Y1452795D02*
D03*
X582795Y1417795D02*
D03*
X285000Y830000D02*
D03*
Y935000D02*
D03*
Y1030000D02*
D03*
Y1135000D02*
D03*
X460000Y1600000D02*
D03*
X535000Y1700000D02*
D03*
X557230Y1870713D02*
D03*
X589313Y1909062D02*
D03*
X710000Y1995000D02*
D03*
X630000Y1880000D02*
D03*
X710000Y1455000D02*
D03*
X860000Y1460000D02*
D03*
X760000Y1350000D02*
D03*
X860000Y1250000D02*
D03*
X810000Y1350000D02*
D03*
Y1125000D02*
D03*
X245000Y2054183D02*
D03*
Y2369183D02*
D03*
X1295000Y1990000D02*
D03*
X1225000D02*
D03*
X1296875Y2310000D02*
D03*
X1295000Y1435000D02*
D03*
X1296562Y1875000D02*
D03*
X1125000D02*
D03*
X1115000Y1000000D02*
D03*
X1295000D02*
D03*
X1461705Y2745000D02*
D03*
Y2308750D02*
D03*
Y1873100D02*
D03*
Y1436250D02*
D03*
X1465000Y1000000D02*
D03*
X1324527Y2160000D02*
D03*
Y1725000D02*
D03*
Y1285000D02*
D03*
Y850000D02*
D03*
X1340000Y1066900D02*
D03*
Y1505000D02*
D03*
Y1940000D02*
D03*
Y2380000D02*
D03*
Y2815000D02*
D03*
%TF.MD5,22b5cff4b133ad1cd25aa10af721fdf9*%
M02*
